<svg width="303" height="238" viewBox="0 0 303 238" fill="none" xmlns="http://www.w3.org/2000/svg">
<path d="M114.418 32.9578C115.21 32.7129 115.653 31.8728 115.408 31.0814C115.163 30.29 114.323 29.847 113.531 30.0918L114.418 32.9578ZM282.943 175.838L269.809 164.547L266.598 181.567L282.943 175.838ZM113.531 30.0918C76.2183 41.637 51.1669 53.3309 38.7199 65.2803C32.4655 71.2847 29.2151 77.5273 29.4372 83.9865C29.6587 90.4274 33.3207 96.6714 39.9609 102.719C53.2023 114.779 79.0362 126.742 117.163 138.699C155.358 150.678 206.111 162.713 269.399 174.809L269.962 171.863C206.728 159.777 156.101 147.767 118.06 135.837C79.9502 123.885 54.6905 112.076 41.981 100.501C35.6457 94.7312 32.618 89.1917 32.4354 83.8834C32.2535 78.5934 34.8847 73.121 40.7976 67.4444C52.6852 56.0321 77.1113 44.501 114.418 32.9578L113.531 30.0918Z" fill="#588EF7" fill-opacity="0.7"/>
</svg>
