<svg width="640" height="638" viewBox="0 0 640 638" fill="none" xmlns="http://www.w3.org/2000/svg">
<path d="M296.155 439.21L430.771 539.62L365.639 406.993L550.536 410.073L396.248 349.714L573.356 288.024L414.889 290.686L511.671 131.429L369.548 216.485L307.863 59.8892L312.359 239.012L175.539 133.01L265.413 275.271L98.0914 202.28L246.586 313.374L83.6768 312.941L268.066 367.902L100.684 433.836L296.155 439.21Z" fill="#FFF200" fill-opacity="0.5"/>
<path d="M546.505 188.161C543.753 182.784 537.81 179.832 534.838 174.454C531.427 168.339 529.446 161.381 525.484 155.476C522.512 151.048 518.88 146.936 514.698 143.562C505.343 135.971 494.447 130.594 484.212 124.057C478.489 120.472 472.765 116.466 468.143 111.616C464.401 107.609 460.989 102.127 455.926 99.4908C444.811 93.481 429.953 100.334 419.167 105.606C414.985 104.762 410.692 106.977 409.702 110.878C408.051 110.983 406.51 111.194 404.859 111.405C403.759 111.51 402.988 112.354 403.208 113.408C404.859 119.734 401.558 126.06 402.878 132.386C403.759 136.814 406.29 140.399 409.702 143.457C412.123 145.565 415.755 149.677 419.497 148.728C421.918 148.096 422.689 146.198 422.909 144.089C432.814 142.086 442.389 136.814 448.553 129.012C453.395 133.335 457.687 138.291 460.659 143.984C464.511 151.364 465.392 159.166 467.703 167.074C468.803 170.87 470.564 174.244 472.655 177.301C477.168 181.308 481.35 183.627 487.513 184.26C491.475 184.682 495.548 185.103 499.4 185.841C499.51 185.841 499.51 186.052 499.4 186.052C494.227 186.474 489.054 186.579 483.991 186.474C482.01 186.474 480.249 185.841 478.598 184.998C468.913 184.892 459.448 181.729 449.763 184.787C448.553 185.209 447.342 185.736 446.131 186.263C445.251 186.579 444.37 187.001 443.38 187.317C441.839 187.95 440.738 189.004 439.748 190.164C438.427 191.64 437.327 193.222 435.786 194.381C430.393 198.599 425.66 203.554 421.258 208.826C421.148 209.037 420.818 208.826 420.818 208.615C422.249 203.765 424.78 199.759 428.082 196.174C404.089 191.429 378.886 196.49 358.965 210.302C356.544 209.037 354.012 207.772 351.481 206.612C351.591 196.174 352.031 185.841 352.472 175.509C356.324 175.087 359.515 171.608 360.396 167.601C361.496 162.54 363.698 152.208 357.754 149.045H357.644C357.975 140.926 358.195 132.808 357.534 124.795C356.984 117.625 352.251 116.887 347.519 112.354C339.044 104.446 333.542 92.005 320.224 96.0115C307.017 92.005 301.404 104.446 292.93 112.354C288.087 116.887 283.465 117.625 282.915 124.795C282.254 132.808 282.585 141.032 282.805 149.045H282.694C276.861 152.208 278.953 162.435 280.053 167.601C280.934 171.608 284.015 175.087 287.977 175.509C288.528 185.841 288.968 196.279 288.968 206.612C286.437 207.772 283.905 209.037 281.484 210.302C261.563 196.596 236.36 191.429 212.367 196.174C215.669 199.759 218.2 203.87 219.631 208.615C219.741 208.826 219.411 209.037 219.191 208.826C214.788 203.554 210.166 198.704 204.663 194.381C203.122 193.222 202.022 191.64 200.701 190.164C199.71 189.004 198.5 187.95 197.069 187.317C196.189 187.001 195.308 186.579 194.318 186.263C193.107 185.736 191.896 185.314 190.686 184.787C181 181.729 171.535 184.787 161.85 184.998C160.199 185.841 158.439 186.474 156.457 186.474C151.285 186.579 146.112 186.368 141.049 186.052C140.939 186.052 140.939 185.947 141.049 185.841C145.011 185.209 148.973 184.682 152.936 184.26C159.099 183.733 163.281 181.308 167.793 177.301C169.885 174.244 171.535 170.975 172.746 167.074C175.057 159.166 175.938 151.47 179.79 143.984C182.761 138.291 187.054 133.335 191.896 129.012C198.06 136.814 207.635 142.086 217.54 144.089C217.76 146.093 218.64 148.096 220.952 148.728C224.694 149.677 228.436 145.565 230.747 143.457C234.269 140.399 236.69 136.814 237.57 132.386C238.891 126.06 235.59 119.84 237.24 113.408C237.571 112.354 236.69 111.51 235.59 111.405C233.939 111.194 232.398 111.089 230.747 110.878C229.646 106.977 225.464 104.762 221.282 105.606C210.496 100.229 195.638 93.481 184.522 99.4908C179.46 102.232 176.048 107.609 172.306 111.616C167.683 116.571 161.96 120.472 156.237 124.057C146.002 130.488 135.106 135.971 125.751 143.562C121.569 147.042 117.937 151.048 114.965 155.476C111.003 161.381 109.132 168.339 105.61 174.454C102.639 179.832 96.6957 182.784 93.9443 188.161C91.4129 193.116 96.3655 197.439 99.7774 200.391C112.874 211.883 125.971 223.481 139.068 235.079C149.194 244.041 159.649 254.584 173.847 256.693C178.799 257.431 183.752 256.482 188.595 255.533C192.777 256.798 197.069 257.958 201.361 258.907C207.194 288.007 223.153 315.209 244.394 336.928C244.284 334.292 244.284 331.762 244.724 329.021C246.815 316.896 250.007 304.244 260.022 295.704C260.243 295.493 260.683 295.809 260.573 296.125C256.06 302.873 252.539 309.41 250.888 317.318C249.457 324.592 247.476 332.605 248.576 340.091C248.796 341.462 248.907 342.938 249.017 344.309C251.878 354.219 253.419 364.552 253.419 375.201C253.309 385.533 250.778 395.233 248.797 405.25C247.146 413.684 253.089 417.48 260.132 420.959C277.962 429.816 299.093 430.343 318.794 429.605C319.234 429.605 319.564 429.605 320.004 429.499C320.004 429.499 320.004 429.499 320.114 429.499C320.114 429.499 320.114 429.499 320.224 429.499C320.665 429.499 320.995 429.499 321.435 429.605C341.026 430.343 362.267 429.816 380.096 420.959C387.14 417.48 393.193 413.79 391.432 405.25C389.451 395.128 386.81 385.533 386.81 375.201C386.7 364.552 388.351 354.219 391.212 344.309C391.322 342.938 391.432 341.462 391.652 340.091C392.753 332.605 390.772 324.592 389.341 317.318C387.69 309.41 384.168 302.873 379.656 296.125C379.436 295.809 379.876 295.493 380.206 295.704C390.222 304.244 393.413 316.896 395.504 329.021C395.945 331.762 395.945 334.398 395.835 336.928C417.076 315.209 433.034 288.007 438.867 258.907C443.16 257.958 447.452 256.904 451.634 255.533C456.477 256.482 461.429 257.431 466.382 256.693C480.69 254.584 491.035 244.041 501.16 235.079C514.257 223.481 527.354 211.883 540.451 200.391C544.083 197.439 549.036 193.222 546.505 188.161ZM199.16 241.827C198.83 242.67 198.5 243.514 198.06 244.252C197.619 245.201 197.069 246.15 196.409 247.098C196.299 247.204 196.299 247.309 196.189 247.309C194.758 249.313 192.997 251.105 191.016 252.686C191.016 252.686 190.906 252.686 190.906 252.581C193.217 249.102 195.638 245.517 197.179 241.616C200.591 230.334 195.528 216.312 184.302 211.04C172.526 205.452 161.3 205.663 148.753 208.088C148.533 208.088 148.423 207.877 148.643 207.772C160.97 202.394 179.24 203.87 190.576 210.935C201.031 217.577 203.342 231.072 199.16 241.827ZM291.939 190.27C296.232 195.33 303.606 199.337 310.759 200.602C307.127 197.755 305.256 194.381 303.936 189.848C303.826 189.531 304.266 189.321 304.486 189.637C306.797 193.643 309.329 197.966 314.281 199.548C316.372 200.18 318.354 200.391 320.224 200.391C322.206 200.391 324.076 200.18 326.168 199.548C331.01 197.966 333.541 193.749 335.963 189.637C336.183 189.321 336.623 189.531 336.513 189.848C335.302 194.381 333.321 197.755 329.689 200.602C336.843 199.337 344.217 195.33 348.509 190.27C348.73 190.059 349.06 190.375 348.95 190.586C345.538 198.388 335.413 202.078 326.828 202.5C324.847 203.554 322.536 204.187 320.224 204.398C317.913 204.292 315.602 203.554 313.621 202.5C305.036 202.078 294.911 198.388 291.499 190.586C291.389 190.375 291.719 190.059 291.939 190.27ZM286.436 211.567C292.38 209.88 298.433 211.673 303.606 214.625C309.549 217.999 314.061 221.794 320.335 222.321C326.498 221.794 331.12 217.999 337.063 214.625C342.236 211.673 348.289 209.88 354.232 211.567C354.343 211.567 354.343 211.778 354.232 211.883C344.767 212.516 338.274 217.471 330.79 222.532C327.598 224.746 324.077 226.012 320.335 226.328C316.593 226.117 313.071 224.746 309.879 222.532C302.505 217.471 295.901 212.516 286.436 211.883C286.326 211.778 286.216 211.567 286.436 211.567ZM246.265 307.196C240.432 306.563 239.992 298.656 241.092 294.333C243.294 286.425 248.907 278.096 254.079 271.665H254.189C252.979 277.78 247.916 282.524 245.825 288.323C243.844 293.7 241.973 301.397 246.815 305.825C247.256 306.352 247.036 307.196 246.265 307.196ZM258.702 295.704C258.262 296.02 257.711 295.387 258.041 295.071C259.472 292.962 260.573 289.483 257.051 288.639C254.85 288.007 252.538 288.323 250.227 287.901C250.117 287.901 250.117 287.691 250.227 287.691C253.089 286.636 258.372 286.109 260.353 288.956C262.004 291.275 261.013 294.227 258.702 295.704ZM285.006 319.004C285.116 318.583 285.776 318.688 285.776 319.11C285.666 324.276 284.566 329.548 284.676 334.714C284.786 340.513 294.141 344.52 299.203 345.679C299.643 345.785 299.533 346.417 299.093 346.417C294.141 346.628 285.556 344.941 283.245 339.88C280.493 333.871 283.575 325.12 285.006 319.004ZM308.558 406.62C303.165 409.572 296.232 404.828 292.71 401.032C288.197 396.182 286.767 388.907 286.767 382.687C286.767 382.37 287.207 382.37 287.317 382.581C288.748 388.38 290.288 394.706 294.801 399.134C297.112 401.348 299.754 403.457 302.945 404.406C304.926 404.933 306.797 405.144 308.668 405.988C308.888 405.988 308.778 406.409 308.558 406.62ZM309.659 373.303C302.505 371.405 292.6 380.473 286.547 372.881C284.565 370.351 283.575 367.82 283.795 364.657C284.345 359.069 285.226 353.798 284.345 348.21C284.235 347.683 285.006 347.472 285.226 347.999C286.216 351.9 287.097 355.801 286.877 359.807C286.767 364.13 285.886 371.3 291.939 372.565C298.103 373.83 303.936 369.402 309.989 372.46C310.429 372.776 310.099 373.514 309.659 373.303ZM347.959 400.927C344.437 404.722 337.504 409.467 332.111 406.515C331.781 406.409 331.781 405.882 332.111 405.777C333.982 405.039 335.963 404.722 337.834 404.195C341.026 403.352 343.667 401.243 345.978 398.924C350.49 394.495 352.031 388.169 353.462 382.37C353.572 382.054 354.012 382.159 354.012 382.476C353.902 388.907 352.472 396.077 347.959 400.927ZM354.122 372.987C348.069 380.473 338.164 371.511 331.01 373.408C330.46 373.514 330.13 372.881 330.68 372.565C336.623 369.507 342.566 373.936 348.73 372.67C354.783 371.405 353.902 364.236 353.792 359.913C353.682 355.906 354.453 352.005 355.443 348.104C355.553 347.577 356.324 347.788 356.324 348.315C355.443 353.903 356.324 359.175 356.874 364.763C357.094 367.926 356.103 370.456 354.122 372.987ZM357.424 339.986C355.223 345.047 346.528 346.734 341.576 346.523C341.135 346.523 341.025 345.89 341.466 345.785C346.528 344.625 355.883 340.618 355.993 334.82C356.104 329.653 355.003 324.382 354.893 319.215C354.893 318.794 355.553 318.688 355.663 319.11C357.094 325.12 360.176 333.871 357.424 339.986ZM367.55 308.039C360.726 309.621 354.563 307.301 348.619 304.244C344.547 302.135 340.585 300.132 336.073 299.077C331.23 297.918 325.507 298.55 320.335 299.077C315.162 298.55 309.439 297.918 304.596 299.077C300.084 300.237 296.122 302.24 292.049 304.244C286.106 307.301 279.943 309.621 273.119 308.039C272.899 307.934 273.009 307.618 273.229 307.723C284.015 309.199 290.949 300.975 300.084 297.18C306.687 294.438 313.511 295.176 320.445 295.387C327.378 295.176 334.202 294.438 340.805 297.18C349.83 300.975 356.874 309.199 367.66 307.723C367.66 307.618 367.88 307.934 367.55 308.039ZM390.552 287.901C388.241 288.323 385.929 288.007 383.728 288.639C380.206 289.588 381.307 292.962 382.738 295.071C382.958 295.493 382.518 296.02 382.077 295.704C379.766 294.122 378.776 291.17 380.426 288.85C382.407 286.004 387.8 286.531 390.552 287.585C390.552 287.691 390.662 287.901 390.552 287.901ZM394.294 307.196C393.633 307.301 393.303 306.352 393.743 305.931C398.586 301.397 396.715 293.7 394.734 288.429C392.533 282.63 387.47 277.885 386.37 271.77C386.37 271.77 386.37 271.665 386.48 271.77C391.652 278.202 397.265 286.425 399.467 294.438C400.677 298.55 400.127 306.563 394.294 307.196ZM430.283 236.766C418.837 243.514 405.3 246.782 391.983 246.044C390.772 247.836 389.561 249.523 388.241 251.21C380.426 261.754 370.851 270.189 357.644 273.773C346.198 276.831 332.001 276.409 323.636 267.342C321.985 265.444 320.885 263.335 320.335 261.016C319.674 263.335 318.684 265.549 317.033 267.342C308.778 276.409 294.471 276.831 283.025 273.773C269.818 270.294 260.243 261.754 252.428 251.21C251.108 249.523 249.897 247.731 248.687 246.044C235.259 246.782 221.722 243.514 210.386 236.766C210.166 236.555 210.386 236.239 210.606 236.344C222.272 241.3 234.159 243.408 246.815 243.197C244.504 239.718 242.193 236.239 239.662 232.865C235.92 227.699 232.508 222.954 229.977 217.05C229.867 216.944 230.197 216.839 230.197 216.944C232.288 220.002 233.829 223.27 236.36 226.117C238.341 228.437 240.432 230.756 242.303 233.181C245.495 237.188 248.356 241.3 251.328 245.517C258.151 255.111 266.406 265.339 278.292 269.45C289.078 273.246 312.741 276.409 316.923 261.859C319.564 252.686 319.344 242.881 320.224 233.392C321.215 242.881 320.885 252.581 323.526 261.859C327.708 276.409 351.371 273.246 362.157 269.45C374.043 265.339 382.187 255.111 389.121 245.517C392.093 241.405 394.954 237.188 398.146 233.181C400.127 230.756 402.108 228.437 404.089 226.117C406.62 223.27 408.051 220.002 410.252 216.944C410.362 216.839 410.582 216.944 410.472 217.05C408.051 222.954 404.529 227.699 400.787 232.865C398.366 236.239 396.055 239.718 393.633 243.197C406.29 243.408 418.176 241.3 429.843 236.344C430.283 236.239 430.613 236.66 430.283 236.766ZM491.806 208.088C479.259 205.768 467.923 205.557 456.257 211.04C445.031 216.312 439.968 230.334 443.38 241.616C444.921 245.412 447.342 248.996 449.653 252.581C449.653 252.686 449.653 252.686 449.543 252.686C447.562 251 445.801 249.207 444.37 247.309C444.26 247.309 444.15 247.204 444.15 247.098C443.6 246.15 443.05 245.306 442.499 244.252C442.059 243.408 441.729 242.67 441.399 241.827C437.217 231.072 439.528 217.577 450.093 211.04C461.429 203.976 479.699 202.5 492.026 207.877C492.136 207.877 492.026 208.193 491.806 208.088Z" fill="#00346E"/>
</svg>
