<svg width="618" height="399" viewBox="0 0 618 399" fill="none" xmlns="http://www.w3.org/2000/svg">
<rect width="618" height="399" rx="10" fill="#F4F5F8"/>
<g clip-path="url(#clip0_481_204)">
<path d="M541.391 54.4472H75.609C74.9173 54.4465 74.2541 54.1863 73.765 53.7238C73.2759 53.2613 73.0008 52.6341 73 51.98V37.4672C73.0008 36.8131 73.2759 36.1859 73.765 35.7234C74.2541 35.2609 74.9173 35.0007 75.609 35H541.391C542.083 35.0007 542.746 35.2609 543.235 35.7234C543.724 36.186 543.999 36.8131 544 37.4672V51.98C543.999 52.6342 543.724 53.2613 543.235 53.7238C542.746 54.1863 542.083 54.4465 541.391 54.4472Z" fill="#B9B9B9"/>
<path d="M88.1416 47.5183C90.1873 47.5183 91.8457 45.9501 91.8457 44.0155C91.8457 42.081 90.1873 40.5127 88.1416 40.5127C86.0959 40.5127 84.4375 42.081 84.4375 44.0155C84.4375 45.9501 86.0959 47.5183 88.1416 47.5183Z" fill="white"/>
<path d="M102.2 47.5183C104.246 47.5183 105.904 45.9501 105.904 44.0155C105.904 42.081 104.246 40.5127 102.2 40.5127C100.154 40.5127 98.4961 42.081 98.4961 44.0155C98.4961 45.9501 100.154 47.5183 102.2 47.5183Z" fill="white"/>
<path d="M116.263 47.5183C118.308 47.5183 119.967 45.9501 119.967 44.0155C119.967 42.081 118.308 40.5127 116.263 40.5127C114.217 40.5127 112.559 42.081 112.559 44.0155C112.559 45.9501 114.217 47.5183 116.263 47.5183Z" fill="white"/>
<path d="M527.617 41.6051H511.427C511.109 41.6044 510.805 41.4847 510.581 41.2721C510.356 41.0594 510.23 40.7714 510.23 40.471C510.23 40.1707 510.356 39.8826 510.581 39.67C510.805 39.4574 511.109 39.3376 511.427 39.3369H527.617C527.935 39.3367 528.24 39.4558 528.465 39.668C528.69 39.8803 528.817 40.1683 528.817 40.4689C528.818 40.7694 528.692 41.0579 528.468 41.271C528.244 41.484 527.94 41.6042 527.622 41.6051H527.617Z" fill="white"/>
<path d="M527.617 45.858H511.427C511.109 45.8574 510.805 45.7376 510.581 45.525C510.356 45.3124 510.23 45.0243 510.23 44.7239C510.23 44.4236 510.356 44.1355 510.581 43.9229C510.805 43.7103 511.109 43.5905 511.427 43.5898H527.617C527.935 43.5896 528.24 43.7087 528.465 43.921C528.69 44.1332 528.817 44.4213 528.817 44.7218C528.818 45.0224 528.692 45.3109 528.468 45.5239C528.244 45.7369 527.94 45.8571 527.622 45.858H527.617Z" fill="white"/>
<path d="M527.616 50.111H511.426C511.108 50.111 510.803 49.9915 510.578 49.7788C510.353 49.5661 510.227 49.2777 510.227 48.9769C510.227 48.6761 510.353 48.3876 510.578 48.1749C510.803 47.9623 511.108 47.8428 511.426 47.8428H527.616C527.934 47.8422 528.239 47.9612 528.465 48.1734C528.69 48.3857 528.817 48.674 528.818 48.9747C528.818 49.2755 528.692 49.5642 528.468 49.7773C528.243 49.9904 527.939 50.1104 527.62 50.111H527.616Z" fill="white"/>
<path d="M205.811 323.393C207.524 310.36 216.066 297.519 229.21 293.277C224.026 306.692 224.027 321.408 229.213 334.822C231.232 339.988 234.048 345.536 232.148 350.742C230.966 353.982 228.074 356.461 224.842 358.011C221.609 359.561 218.022 360.3 214.479 361.024L213.782 361.569C208.159 349.56 204.097 336.426 205.811 323.393Z" fill="#B9B9B9"/>
<path d="M229.34 293.524C221.685 301.634 216.928 311.819 215.743 322.632C215.445 324.955 215.535 327.309 216.011 329.606C216.552 331.829 217.712 333.875 219.371 335.531C220.885 337.104 222.627 338.548 223.71 340.442C224.25 341.419 224.565 342.493 224.634 343.593C224.704 344.694 224.527 345.796 224.114 346.827C223.158 349.422 221.272 351.536 219.353 353.544C217.221 355.773 214.97 358.056 214.064 361.011C213.954 361.369 213.373 361.187 213.482 360.83C215.059 355.689 220.336 352.768 222.853 348.138C224.028 345.977 224.521 343.468 223.42 341.187C222.457 339.193 220.662 337.703 219.115 336.122C217.471 334.529 216.265 332.58 215.601 330.445C215.003 328.178 214.817 325.832 215.051 323.506C215.489 318.263 216.797 313.117 218.926 308.258C221.323 302.699 224.708 297.569 228.935 293.09C229.197 292.813 229.6 293.248 229.34 293.524Z" fill="white"/>
<path d="M215.91 319.129C214.019 318.695 212.352 317.639 211.208 316.15C210.064 314.661 209.517 312.836 209.664 311C209.671 310.926 209.708 310.856 209.768 310.807C209.828 310.757 209.905 310.732 209.985 310.736C210.064 310.739 210.139 310.772 210.193 310.827C210.247 310.882 210.277 310.954 210.276 311.029C210.135 312.738 210.645 314.438 211.713 315.823C212.782 317.207 214.338 318.185 216.102 318.579C216.485 318.666 216.291 319.215 215.91 319.129Z" fill="white"/>
<path d="M218.494 334.828C221.91 332.899 224.432 329.824 225.557 326.214C225.668 325.857 226.249 326.039 226.138 326.396C224.96 330.15 222.329 333.345 218.769 335.345C218.43 335.535 218.157 335.017 218.494 334.828Z" fill="white"/>
<path d="M221.892 303.246C222.587 303.559 223.352 303.703 224.121 303.666C224.889 303.629 225.636 303.412 226.293 303.035C226.63 302.841 226.903 303.359 226.569 303.552C225.84 303.966 225.015 304.204 224.166 304.247C223.318 304.289 222.471 304.134 221.7 303.796C221.624 303.77 221.562 303.718 221.526 303.65C221.49 303.582 221.482 303.503 221.505 303.43C221.531 303.358 221.586 303.298 221.658 303.263C221.731 303.229 221.815 303.223 221.892 303.246Z" fill="white"/>
<path d="M269.273 316.556C269.067 316.683 268.86 316.81 268.653 316.942C265.885 318.663 263.27 320.594 260.832 322.716C260.641 322.877 260.45 323.043 260.264 323.21C254.449 328.381 249.7 334.528 246.259 341.339C244.892 344.05 243.745 346.856 242.829 349.732C241.563 353.703 240.525 358.105 238.019 361.354C237.762 361.695 237.482 362.022 237.182 362.331H214.539C214.488 362.306 214.436 362.287 214.385 362.262L213.48 362.301C213.517 362.15 213.558 361.994 213.594 361.842C213.615 361.754 213.641 361.666 213.661 361.578C213.677 361.52 213.692 361.461 213.703 361.407C213.708 361.388 213.713 361.368 213.718 361.354C213.728 361.3 213.744 361.251 213.754 361.202C213.982 360.328 214.216 359.453 214.457 358.579C214.457 358.574 214.457 358.574 214.462 358.569C216.231 351.889 218.833 345.431 222.211 339.331C222.314 339.15 222.418 338.964 222.531 338.784C224.096 336.083 225.891 333.508 227.899 331.084C229.003 329.761 230.177 328.49 231.417 327.279C234.627 324.154 238.337 321.526 242.41 319.492C250.531 315.437 259.933 313.883 268.612 316.36C268.834 316.424 269.051 316.487 269.273 316.556Z" fill="#B9B9B9"/>
<path d="M269.223 316.828C257.948 318.945 247.665 324.369 239.835 332.328C238.117 334.013 236.691 335.943 235.608 338.048C234.624 340.131 234.248 342.425 234.519 344.692C234.726 346.81 235.198 348.955 234.857 351.084C234.665 352.171 234.233 353.208 233.588 354.126C232.943 355.045 232.1 355.824 231.114 356.412C228.698 357.939 225.847 358.554 223.036 359.064C219.915 359.63 216.663 360.172 214.058 362.015C213.743 362.239 213.395 361.762 213.71 361.539C218.242 358.332 224.315 359.005 229.273 356.741C231.586 355.684 233.577 353.962 234.15 351.514C234.651 349.373 234.167 347.161 233.937 345.018C233.639 342.811 233.917 340.567 234.747 338.485C235.712 336.334 237.057 334.355 238.725 332.631C242.413 328.695 246.734 325.331 251.527 322.663C256.98 319.589 262.949 317.42 269.176 316.25C269.561 316.178 269.606 316.756 269.223 316.828Z" fill="white"/>
<path d="M242.199 329.625C240.965 328.201 240.307 326.409 240.341 324.569C240.376 322.729 241.101 320.96 242.387 319.578C242.648 319.3 243.118 319.67 242.857 319.95C241.656 321.234 240.981 322.882 240.953 324.595C240.925 326.309 241.545 327.976 242.702 329.295C242.953 329.582 242.449 329.91 242.199 329.625Z" fill="white"/>
<path d="M234.264 343.631C238.22 344.036 242.191 343.016 245.387 340.775C245.704 340.552 246.052 341.028 245.736 341.25C242.405 343.577 238.27 344.63 234.155 344.2C233.762 344.159 233.874 343.59 234.264 343.631Z" fill="white"/>
<path d="M257.085 320.35C257.441 320.995 257.961 321.546 258.598 321.954C259.235 322.362 259.969 322.614 260.734 322.687C261.127 322.723 261.015 323.293 260.625 323.257C259.78 323.172 258.969 322.893 258.264 322.443C257.56 321.994 256.982 321.388 256.582 320.679C256.538 320.615 256.522 320.538 256.536 320.463C256.551 320.389 256.595 320.322 256.659 320.277C256.726 320.233 256.808 320.217 256.888 320.23C256.968 320.244 257.039 320.287 257.085 320.35Z" fill="white"/>
<path d="M225.664 136.191H150.751C148.436 136.188 146.217 135.317 144.58 133.769C142.943 132.221 142.022 130.122 142.02 127.933V89.3495C142.022 87.1604 142.943 85.0617 144.58 83.5137C146.217 81.9658 148.436 81.0952 150.751 81.0928H225.664C227.979 81.0952 230.198 81.9658 231.835 83.5137C233.472 85.0617 234.393 87.1604 234.395 89.3495V127.933C234.393 130.122 233.472 132.221 231.835 133.769C230.198 135.317 227.979 136.188 225.664 136.191Z" fill="#B9B9B9"/>
<path d="M340.035 136.191H265.122C262.807 136.188 260.588 135.317 258.951 133.769C257.314 132.221 256.393 130.122 256.391 127.933V89.3495C256.393 87.1604 257.314 85.0617 258.951 83.5137C260.588 81.9658 262.807 81.0952 265.122 81.0928H340.035C342.35 81.0952 344.569 81.9658 346.206 83.5137C347.843 85.0617 348.764 87.1604 348.766 89.3495V127.933C348.764 130.122 347.843 132.221 346.206 133.769C344.569 135.317 342.35 136.188 340.035 136.191Z" fill="#588EF7"/>
<path d="M454.406 136.191H379.493C377.178 136.188 374.959 135.317 373.322 133.769C371.685 132.221 370.764 130.122 370.762 127.933V89.3495C370.764 87.1604 371.685 85.0617 373.322 83.5137C374.959 81.9658 377.178 81.0952 379.493 81.0928H454.406C456.721 81.0952 458.94 81.9658 460.577 83.5137C462.214 85.0617 463.135 87.1604 463.137 89.3495V127.933C463.135 130.122 462.214 132.221 460.577 133.769C458.94 135.317 456.721 136.188 454.406 136.191Z" fill="#B9B9B9"/>
<path d="M225.664 222.16H150.751C148.436 222.158 146.217 221.287 144.58 219.739C142.943 218.191 142.022 216.092 142.02 213.903V175.319C142.022 173.13 142.943 171.031 144.58 169.483C146.217 167.936 148.436 167.065 150.751 167.062H225.664C227.979 167.065 230.198 167.936 231.835 169.483C233.472 171.031 234.393 173.13 234.395 175.319V213.903C234.393 216.092 233.472 218.191 231.835 219.739C230.198 221.287 227.979 222.158 225.664 222.16Z" fill="#F2F2F2"/>
<path d="M340.035 222.16H265.122C262.807 222.158 260.588 221.287 258.951 219.739C257.314 218.191 256.393 216.092 256.391 213.903V175.319C256.393 173.13 257.314 171.031 258.951 169.483C260.588 167.936 262.807 167.065 265.122 167.062H340.035C342.35 167.065 344.569 167.936 346.206 169.483C347.843 171.031 348.764 173.13 348.766 175.319V213.903C348.764 216.092 347.843 218.191 346.206 219.739C344.569 221.287 342.35 222.158 340.035 222.16Z" fill="#B9B9B9"/>
<path d="M345.325 229.26C352.714 229.26 358.705 223.595 358.705 216.608C358.705 209.62 352.714 203.955 345.325 203.955C337.936 203.955 331.945 209.62 331.945 216.608C331.945 223.595 337.936 229.26 345.325 229.26Z" fill="#588EF7"/>
<path d="M350.88 215.546H346.331V211.244C346.331 211.111 346.303 210.979 346.249 210.856C346.195 210.734 346.117 210.622 346.017 210.528C345.918 210.434 345.8 210.359 345.67 210.309C345.54 210.258 345.401 210.231 345.26 210.231C345.12 210.231 344.98 210.258 344.851 210.309C344.721 210.359 344.603 210.434 344.503 210.528C344.404 210.622 344.325 210.734 344.271 210.856C344.217 210.979 344.19 211.111 344.19 211.244V215.546H339.641C339.5 215.546 339.361 215.572 339.231 215.623C339.101 215.674 338.983 215.748 338.884 215.842C338.784 215.936 338.706 216.048 338.652 216.17C338.598 216.293 338.57 216.425 338.57 216.558C338.57 216.691 338.598 216.822 338.652 216.945C338.706 217.068 338.784 217.18 338.884 217.274C338.983 217.368 339.101 217.442 339.231 217.493C339.361 217.544 339.5 217.57 339.641 217.57H344.19V221.872C344.19 222.005 344.218 222.137 344.271 222.259C344.325 222.382 344.404 222.494 344.503 222.588C344.603 222.682 344.721 222.756 344.851 222.807C344.98 222.858 345.12 222.884 345.26 222.884C345.544 222.884 345.816 222.778 346.017 222.588C346.218 222.398 346.331 222.14 346.331 221.872V217.57H350.88C351.02 217.57 351.159 217.544 351.289 217.493C351.419 217.442 351.537 217.368 351.637 217.274C351.736 217.18 351.815 217.068 351.869 216.945C351.922 216.822 351.95 216.691 351.95 216.558C351.95 216.425 351.922 216.293 351.869 216.17C351.815 216.048 351.736 215.936 351.637 215.842C351.537 215.748 351.419 215.673 351.289 215.623C351.159 215.572 351.02 215.546 350.88 215.546Z" fill="white"/>
<path d="M461.454 145.509C468.843 145.509 474.834 139.844 474.834 132.857C474.834 125.869 468.843 120.204 461.454 120.204C454.064 120.204 448.074 125.869 448.074 132.857C448.074 139.844 454.064 145.509 461.454 145.509Z" fill="#588EF7"/>
<path d="M467.009 131.795H462.46V127.493C462.46 127.36 462.432 127.228 462.378 127.105C462.324 126.983 462.245 126.871 462.146 126.777C462.047 126.683 461.929 126.608 461.799 126.558C461.669 126.507 461.53 126.48 461.389 126.48C461.249 126.48 461.109 126.507 460.979 126.558C460.85 126.608 460.732 126.683 460.632 126.777C460.533 126.871 460.454 126.983 460.4 127.105C460.346 127.228 460.319 127.36 460.319 127.493V131.795H455.77C455.629 131.795 455.49 131.821 455.36 131.872C455.23 131.923 455.112 131.997 455.013 132.091C454.913 132.185 454.834 132.297 454.781 132.42C454.727 132.542 454.699 132.674 454.699 132.807C454.699 132.94 454.727 133.071 454.781 133.194C454.834 133.317 454.913 133.429 455.013 133.523C455.112 133.617 455.23 133.691 455.36 133.742C455.49 133.793 455.629 133.819 455.77 133.819H460.319V138.121C460.319 138.254 460.346 138.386 460.4 138.508C460.454 138.631 460.533 138.743 460.632 138.837C460.732 138.931 460.85 139.005 460.979 139.056C461.109 139.107 461.249 139.133 461.389 139.133C461.673 139.133 461.945 139.027 462.146 138.837C462.347 138.647 462.46 138.389 462.46 138.121V133.819H467.009C467.149 133.819 467.288 133.793 467.418 133.742C467.548 133.691 467.666 133.617 467.765 133.523C467.865 133.429 467.944 133.317 467.998 133.194C468.051 133.071 468.079 132.94 468.079 132.807C468.079 132.674 468.051 132.542 467.998 132.419C467.944 132.297 467.865 132.185 467.765 132.091C467.666 131.997 467.548 131.923 467.418 131.872C467.288 131.821 467.149 131.795 467.009 131.795Z" fill="white"/>
<path d="M230.954 144.4C238.343 144.4 244.334 138.735 244.334 131.747C244.334 124.759 238.343 119.095 230.954 119.095C223.564 119.095 217.574 124.759 217.574 131.747C217.574 138.735 223.564 144.4 230.954 144.4Z" fill="#588EF7"/>
<path d="M236.509 130.685H231.96V126.383C231.96 126.25 231.932 126.119 231.878 125.996C231.824 125.873 231.745 125.762 231.646 125.668C231.547 125.574 231.429 125.499 231.299 125.448C231.169 125.397 231.03 125.371 230.889 125.371C230.749 125.371 230.609 125.397 230.48 125.448C230.35 125.499 230.232 125.574 230.132 125.668C230.033 125.762 229.954 125.873 229.9 125.996C229.846 126.119 229.819 126.25 229.819 126.383V130.685H225.27C225.129 130.685 224.99 130.711 224.86 130.762C224.73 130.813 224.612 130.888 224.513 130.982C224.413 131.076 224.335 131.187 224.281 131.31C224.227 131.433 224.199 131.565 224.199 131.698C224.199 131.966 224.312 132.223 224.513 132.413C224.713 132.603 224.986 132.71 225.27 132.71H229.819V137.012C229.819 137.145 229.846 137.276 229.9 137.399C229.954 137.522 230.033 137.633 230.132 137.727C230.232 137.821 230.35 137.896 230.48 137.947C230.609 137.998 230.749 138.024 230.889 138.024C231.03 138.024 231.169 137.998 231.299 137.947C231.429 137.896 231.547 137.821 231.646 137.727C231.745 137.633 231.824 137.522 231.878 137.399C231.932 137.276 231.96 137.145 231.96 137.012V132.71H236.509C236.649 132.71 236.788 132.684 236.918 132.633C237.048 132.582 237.166 132.507 237.266 132.413C237.365 132.319 237.444 132.208 237.498 132.085C237.551 131.962 237.579 131.83 237.579 131.697C237.579 131.429 237.466 131.172 237.266 130.982C237.065 130.792 236.793 130.685 236.509 130.685Z" fill="white"/>
<path d="M331.125 114.269C331.369 114.967 331.448 115.707 331.357 116.438C331.266 117.168 331.007 117.871 330.597 118.496C330.188 119.121 329.638 119.654 328.988 120.057C328.337 120.459 327.601 120.722 326.831 120.827L320.645 160.761L310.496 156.074L320.704 116.212C320.603 114.978 320.986 113.751 321.778 112.765C322.57 111.78 323.717 111.103 325.001 110.863C326.286 110.624 327.619 110.838 328.747 111.466C329.876 112.093 330.722 113.091 331.125 114.269Z" fill="#9E616A"/>
<path d="M257.233 242.169C257.685 241.57 257.993 240.885 258.134 240.162C258.276 239.439 258.248 238.695 258.053 237.983C257.857 237.272 257.499 236.609 257.004 236.042C256.509 235.475 255.888 235.018 255.185 234.702L259.359 192.225L250.617 196.462L247.888 237.395C247.405 238.546 247.387 239.824 247.835 240.988C248.282 242.151 249.166 243.119 250.318 243.707C251.47 244.296 252.81 244.464 254.085 244.181C255.359 243.897 256.48 243.181 257.233 242.169Z" fill="#9E616A"/>
<path d="M263.205 220.685L300.719 219.32L302.883 182.48H259.598L263.205 220.685Z" fill="#9E616A"/>
<path d="M256.243 350.787L262.654 350.786L265.703 327.404H256.242L256.243 350.787Z" fill="#9E616A"/>
<path d="M254.653 347.797L264.786 347.225V351.33L274.421 357.623C274.897 357.933 275.255 358.38 275.444 358.897C275.632 359.414 275.641 359.974 275.469 360.496C275.297 361.018 274.953 361.475 274.487 361.799C274.021 362.123 273.458 362.298 272.88 362.298H260.815L258.736 358.236L257.924 362.298H253.375L254.653 347.797Z" fill="#2F2E41"/>
<path d="M284.755 350.787L291.166 350.786L294.215 327.404H284.754L284.755 350.787Z" fill="#9E616A"/>
<path d="M262.684 212.036C262.684 212.036 251.46 220.606 257.545 251.21C256.618 251.314 257.667 253.041 257.667 253.041L258.545 277.978L259.224 280.836L256.968 285.447L257.898 290.458L255.031 335.934L265.622 337.229L275.757 290.005L277.687 284.695L279.623 280.042L278.579 275.079L279.435 267.376L285.278 241.403L286.708 286.45L284.713 290.75L285.823 295.471L283.349 297.977L282.371 340.124L293.664 340.624L303.008 298.136L302.283 292.715L303.526 288.706V279.342L305.655 274.922L310.297 250.825C310.297 250.825 311.697 231.99 301.481 209.826L262.684 212.036Z" fill="#2F2E41"/>
<path d="M267.259 151.863C267.259 151.863 253.082 154.515 250.639 165.948C248.197 177.382 246.625 203.255 246.625 203.255L247.16 206.858L260.874 209.865L269.626 173.612L267.259 151.863Z" fill="#3F3D56"/>
<path d="M299.613 155.722C299.613 155.722 301.05 153.818 309.098 153.524C309.429 153.512 309.019 152.891 309.019 152.891L312.889 135.002L325.787 141.755L323.61 160.509L302.416 183.305L299.613 155.722Z" fill="#3F3D56"/>
<path d="M291.574 209.051C285.502 209.052 276.362 208.418 262.603 206.486C261.716 206.36 260.896 205.969 260.262 205.37C259.627 204.772 259.211 203.997 259.076 203.159C258.626 202.711 258.334 202.142 258.238 201.531C258.143 200.919 258.248 200.295 258.541 199.743L258.554 199.719L258.242 199.371C257.76 198.836 257.477 198.165 257.436 197.463C257.395 196.761 257.598 196.065 258.015 195.483L253.754 166.655C253.322 163.793 253.984 160.878 255.621 158.436C257.258 155.993 259.763 154.184 262.685 153.332L264.258 152.869L270.207 145.511L270.324 145.512L289.422 145.752L295.619 153.195L305.637 155.429L305.663 155.573L307.989 168.282C309.199 174.892 306.425 177.492 302.883 183.305L303.923 199.63L304.394 200.441C304.656 200.889 304.744 201.41 304.642 201.913C304.541 202.416 304.256 202.87 303.838 203.196C304.154 204.05 304.176 204.977 303.9 205.843L303.655 206.609C303.655 206.631 303.59 206.942 303.061 207.322C302.107 208.007 299.369 209.051 291.574 209.051Z" fill="#3F3D56"/>
<path d="M283.164 347.797L293.298 347.225V351.33L302.932 357.623C303.408 357.933 303.767 358.38 303.955 358.897C304.144 359.414 304.153 359.974 303.981 360.496C303.809 361.018 303.464 361.475 302.999 361.799C302.533 362.123 301.97 362.298 301.391 362.298H289.327L287.247 358.236L286.436 362.298H281.887L283.164 347.797Z" fill="#2F2E41"/>
<path d="M293.806 129.475C295.131 121.757 289.588 114.485 281.426 113.232C273.264 111.98 265.574 117.221 264.25 124.94C262.925 132.658 268.468 139.93 276.63 141.183C284.792 142.435 292.482 137.194 293.806 129.475Z" fill="#9E616A"/>
<path d="M287.784 113.374C282.296 109.805 277.464 109.262 273.495 110.274C272.98 109.521 272.259 108.915 271.408 108.521C268.312 101.144 258.89 96.7141 250.805 98.8677C242.668 101.035 237.053 109.559 238.584 117.422C239.533 122.296 242.776 126.516 244.081 131.315C246.606 140.606 240.446 151.249 230.809 154.244C239.933 155.977 249.977 150.706 253.251 142.467C254.841 138.465 254.937 134.096 255.139 129.826C255.192 126.878 255.574 123.944 256.278 121.072C256.628 119.783 257.122 118.534 257.751 117.344C259.123 114.73 261.402 112.64 264.206 111.422C263.955 112.157 263.893 112.937 264.023 113.699C264.154 114.462 264.474 115.183 264.958 115.805C262.818 118.34 261.654 121.082 261.654 122.723C257.208 130.407 263.565 137.006 271.69 141.21C274.931 142.895 278.673 143.512 282.325 142.963L282.665 141.591L283.126 142.827L284.663 146.971C286.437 147.782 288.195 148.672 289.937 149.639C289.275 146.699 288.74 143.764 288.371 140.894C287.861 136.988 289.64 131.174 290.923 127.638C291.719 125.458 292.127 123.169 292.131 120.864V120.763L293.381 124.558L297.93 122.723C297.083 118.133 297.93 112.922 287.784 113.374Z" fill="#2F2E41"/>
<path d="M474.861 363H142.136C141.952 363 141.775 362.93 141.645 362.806C141.515 362.682 141.441 362.515 141.441 362.34C141.441 362.166 141.515 361.998 141.645 361.874C141.775 361.751 141.952 361.681 142.136 361.68H474.861C475.046 361.681 475.222 361.751 475.353 361.874C475.483 361.998 475.556 362.166 475.556 362.34C475.556 362.515 475.483 362.682 475.353 362.806C475.222 362.93 475.046 363 474.861 363Z" fill="#CCCCCC"/>
<path d="M229.427 230.922C236.816 230.922 242.806 225.258 242.806 218.27C242.806 211.282 236.816 205.617 229.427 205.617C222.037 205.617 216.047 211.282 216.047 218.27C216.047 225.258 222.037 230.922 229.427 230.922Z" fill="#B9B9B9"/>
<path d="M430.738 210.998H383.81C382.359 210.997 380.969 210.451 379.944 209.481C378.918 208.512 378.341 207.197 378.34 205.825V181.655C378.341 180.283 378.918 178.969 379.944 177.999C380.969 177.029 382.36 176.484 383.81 176.482H430.738C432.188 176.484 433.579 177.029 434.604 177.999C435.63 178.969 436.206 180.283 436.208 181.655V205.825C436.206 207.197 435.63 208.512 434.604 209.481C433.579 210.451 432.188 210.997 430.738 210.998Z" fill="#F2F2F2"/>
<path d="M431.43 201.181C435.354 201.181 438.535 198.172 438.535 194.461C438.535 190.75 435.354 187.742 431.43 187.742C427.505 187.742 424.324 190.75 424.324 194.461C424.324 198.172 427.505 201.181 431.43 201.181Z" fill="#588EF7"/>
<path d="M434.381 193.897H431.965V191.613C431.965 191.542 431.95 191.472 431.922 191.407C431.893 191.342 431.851 191.283 431.798 191.233C431.746 191.183 431.683 191.143 431.614 191.116C431.545 191.089 431.471 191.075 431.396 191.075C431.246 191.075 431.101 191.132 430.994 191.233C430.888 191.333 430.828 191.47 430.828 191.613V193.897H428.412C428.261 193.897 428.117 193.954 428.01 194.055C427.904 194.156 427.844 194.292 427.844 194.435C427.844 194.505 427.858 194.575 427.887 194.641C427.916 194.706 427.957 194.765 428.01 194.815C428.063 194.865 428.126 194.905 428.195 194.932C428.264 194.959 428.338 194.972 428.412 194.972H430.828V197.257C430.828 197.328 430.843 197.397 430.871 197.463C430.9 197.528 430.942 197.587 430.995 197.637C431.047 197.687 431.11 197.727 431.179 197.754C431.248 197.781 431.322 197.795 431.397 197.795C431.547 197.795 431.692 197.738 431.798 197.637C431.905 197.536 431.965 197.4 431.965 197.257V194.972H434.381C434.532 194.972 434.676 194.916 434.783 194.815C434.889 194.714 434.949 194.577 434.949 194.435C434.949 194.364 434.935 194.294 434.906 194.229C434.877 194.164 434.836 194.105 434.783 194.055C434.73 194.005 434.667 193.965 434.598 193.938C434.529 193.911 434.455 193.897 434.381 193.897Z" fill="white"/>
<path d="M449.857 204.139H411.183C409.542 204.138 407.968 203.52 406.808 202.423C405.647 201.325 404.994 199.837 404.992 198.285V176.454C404.993 176.168 405.113 175.895 405.327 175.693C405.541 175.491 405.831 175.378 406.133 175.378C406.435 175.378 406.725 175.491 406.938 175.693C407.152 175.895 407.273 176.168 407.273 176.454V182.301L452.195 186.162C453.092 186.177 453.947 186.525 454.577 187.13C455.206 187.735 455.559 188.549 455.56 189.398C455.56 189.464 455.553 189.531 455.54 189.597L453.277 201.014C453.245 201.852 452.872 202.646 452.234 203.229C451.596 203.812 450.744 204.138 449.857 204.139ZM407.274 184.467V198.285C407.275 199.265 407.687 200.205 408.42 200.898C409.153 201.591 410.147 201.981 411.183 201.982H449.857C450.159 201.982 450.449 201.868 450.663 201.666C450.877 201.463 450.997 201.189 450.998 200.903C450.998 200.837 451.004 200.77 451.017 200.705L453.275 189.315C453.253 189.044 453.123 188.791 452.913 188.607C452.702 188.422 452.425 188.319 452.138 188.319C452.104 188.319 452.069 188.318 452.035 188.315L407.274 184.467Z" fill="#588EF7"/>
<path d="M400.905 214.207C401.955 214.207 402.806 213.402 402.806 212.409C402.806 211.416 401.955 210.611 400.905 210.611C399.855 210.611 399.004 211.416 399.004 212.409C399.004 213.402 399.855 214.207 400.905 214.207Z" fill="#588EF7"/>
<path d="M448.335 214.207C449.385 214.207 450.236 213.402 450.236 212.409C450.236 211.416 449.385 210.611 448.335 210.611C447.285 210.611 446.434 211.416 446.434 212.409C446.434 213.402 447.285 214.207 448.335 214.207Z" fill="#588EF7"/>
<path d="M450.238 210.611H399.387C399.084 210.611 398.794 210.498 398.58 210.295C398.366 210.093 398.246 209.819 398.246 209.533C398.246 209.247 398.366 208.972 398.58 208.77C398.794 208.568 399.084 208.454 399.387 208.454H450.238C450.54 208.454 450.83 208.568 451.044 208.77C451.258 208.972 451.378 209.247 451.378 209.533C451.378 209.819 451.258 210.093 451.044 210.295C450.83 210.498 450.54 210.611 450.238 210.611Z" fill="#588EF7"/>
<path d="M409.172 177.173H399.286C398.984 177.172 398.695 177.058 398.482 176.856C398.268 176.654 398.148 176.38 398.148 176.094C398.148 175.809 398.268 175.535 398.482 175.332C398.695 175.13 398.984 175.016 399.286 175.016H409.172C409.474 175.016 409.763 175.13 409.977 175.332C410.19 175.535 410.31 175.809 410.31 176.094C410.31 176.38 410.19 176.654 409.977 176.856C409.763 177.058 409.474 177.172 409.172 177.173Z" fill="#588EF7"/>
<path d="M417.104 210.062C416.831 210.062 416.568 209.97 416.361 209.801L408.864 203.709C408.75 203.617 408.656 203.504 408.588 203.378C408.521 203.251 408.48 203.113 408.468 202.972C408.457 202.83 408.475 202.688 408.522 202.553C408.568 202.419 408.643 202.294 408.74 202.186C408.838 202.079 408.957 201.99 409.091 201.926C409.225 201.862 409.371 201.824 409.521 201.814C409.67 201.803 409.82 201.82 409.963 201.865C410.105 201.909 410.237 201.98 410.351 202.073L417.848 208.165C418.025 208.309 418.15 208.5 418.209 208.713C418.267 208.927 418.255 209.152 418.174 209.358C418.093 209.565 417.947 209.743 417.756 209.869C417.564 209.995 417.337 210.062 417.104 210.062Z" fill="#588EF7"/>
<path d="M418.684 203.477C418.534 203.477 418.385 203.449 418.247 203.395C418.109 203.341 417.983 203.261 417.877 203.161C417.771 203.061 417.687 202.942 417.63 202.811C417.572 202.68 417.543 202.54 417.543 202.398V185.084C417.543 184.797 417.663 184.523 417.877 184.321C418.091 184.119 418.381 184.005 418.684 184.005C418.986 184.005 419.276 184.119 419.49 184.321C419.704 184.523 419.824 184.797 419.824 185.084V202.398C419.824 202.54 419.795 202.68 419.737 202.811C419.68 202.942 419.596 203.061 419.49 203.161C419.384 203.261 419.259 203.341 419.12 203.395C418.982 203.449 418.833 203.477 418.684 203.477Z" fill="#588EF7"/>
<path d="M442.777 203.477C442.628 203.477 442.479 203.449 442.341 203.395C442.202 203.34 442.077 203.261 441.971 203.161C441.865 203.061 441.781 202.942 441.724 202.811C441.666 202.68 441.637 202.54 441.637 202.398V186.522C441.637 186.236 441.758 185.962 441.972 185.76C442.186 185.559 442.475 185.445 442.777 185.445C443.079 185.445 443.369 185.559 443.583 185.76C443.797 185.962 443.917 186.236 443.918 186.522V202.398C443.918 202.54 443.888 202.68 443.831 202.811C443.774 202.942 443.69 203.061 443.584 203.161C443.478 203.261 443.352 203.34 443.214 203.395C443.076 203.449 442.927 203.477 442.777 203.477Z" fill="#588EF7"/>
</g>
<defs>
<clipPath id="clip0_481_204">
<rect width="471" height="328" fill="white" transform="translate(73 35)"/>
</clipPath>
</defs>
</svg>
