<svg width="133" height="133" viewBox="0 0 133 133" fill="none" xmlns="http://www.w3.org/2000/svg">
<circle cx="66.5" cy="66.5" r="64" fill="#EEA6A1" stroke="#D23127" stroke-width="5"/>
<path d="M101.994 78.6784L107.833 72.8393L101.994 67.0001L87.4165 81.5776L52.4223 46.5834L66.9998 32.0059L61.1607 26.1667L55.3215 32.0059L49.4823 26.1667L40.744 34.9051L34.9048 29.0659L29.0657 34.9051L34.9048 40.7442L26.1665 49.4826L32.0057 55.3218L26.1665 61.1609L32.0057 67.0001L46.5832 52.4226L81.5773 87.4168L66.9998 101.994L72.839 107.833L78.6782 101.994L84.5173 107.833L93.2557 99.0951L99.0948 104.934L104.934 99.0951L99.0948 93.2559L107.833 84.5176L101.994 78.6784Z" fill="#D23127"/>
</svg>
