<svg width="271" height="109" viewBox="0 0 271 109" fill="none" xmlns="http://www.w3.org/2000/svg">
<path d="M203.436 2.83106C202.757 2.34558 202.577 1.39812 203.034 0.714849C203.491 0.0315774 204.412 -0.128768 205.091 0.356714L203.436 2.83106ZM0.485032 94.8268L16.0026 87.8416L14.4947 105.253L0.485032 94.8268ZM205.091 0.356714C237.408 23.4597 257.949 42.939 266.355 58.7926C270.58 66.7619 271.844 74.0169 269.753 80.403C267.669 86.7711 262.366 91.9127 254.242 95.9539C238.047 104.011 209.829 108.099 169.846 108.397C129.794 108.696 77.7121 105.186 13.6205 97.8807L13.8744 94.864C77.9102 102.163 129.862 105.659 169.75 105.362C209.707 105.064 237.335 100.957 252.893 93.2172C260.646 89.3602 265.196 84.7035 266.94 79.3732C268.679 74.0609 267.75 67.7174 263.758 60.1881C255.728 45.0444 235.741 25.9261 203.436 2.83106L205.091 0.356714Z" fill="#588EF7" fill-opacity="0.7"/>
</svg>
