<svg width="273" height="298" viewBox="0 0 273 298" fill="none" xmlns="http://www.w3.org/2000/svg">
<g clip-path="url(#clip0_329_1102)">
<path d="M107.673 22.2467C106.973 21.803 106.047 22.0105 105.603 22.7102C105.159 23.4098 105.367 24.3366 106.066 24.7802L107.673 22.2467ZM51.101 218.002L66.9799 224.92L65.0316 207.71L51.101 218.002ZM106.066 24.7802C147.526 51.0703 177.638 74.7429 196.49 95.7919C215.385 116.889 222.697 135.039 219.326 150.391C215.957 165.737 201.757 178.988 175.84 189.895C149.98 200.777 112.832 209.159 64.3189 214.996L64.6773 217.975C113.297 212.125 150.765 203.702 177.003 192.66C203.183 181.642 218.564 167.85 222.256 151.034C225.947 134.224 217.803 115.093 198.725 93.7904C179.603 72.4398 149.223 48.5939 107.673 22.2467L106.066 24.7802Z" fill="#4365DF" fill-opacity="0.7"/>
</g>
<defs>
<clipPath id="clip0_329_1102">
<rect width="195" height="241" fill="white" transform="translate(92.2266) rotate(22.5)"/>
</clipPath>
</defs>
</svg>
