<svg width="133" height="133" viewBox="0 0 133 133" fill="none" xmlns="http://www.w3.org/2000/svg">
<circle cx="66.5" cy="66.5" r="64" fill="#EEA6A1" stroke="#D23127" stroke-width="5"/>
<mask id="mask0_16_45" style="mask-type:luminance" maskUnits="userSpaceOnUse" x="34" y="35" width="64" height="63">
<path d="M62.8208 83.9712C64.9464 76.2751 72.3786 70.7779 80.9396 71.6868C89.0901 72.5517 95.5695 79.4269 95.9799 87.6067C96.0825 89.7616 95.7893 91.8285 95.159 93.7489C94.7779 94.9216 93.6344 95.6986 92.3884 95.6986H48.7304C41.3304 95.6986 35.7804 88.9275 37.2317 81.6712L46.1533 37.0618H63.7443L69.608 47.3232L57.0451 56.3093L53.4829 51.721" fill="white"/>
<path d="M62.8208 83.9712C64.9464 76.2751 72.3786 70.7779 80.9396 71.6868C89.0901 72.5517 95.5695 79.4269 95.9799 87.6067C96.0825 89.7616 95.7893 91.8285 95.159 93.7489C94.7779 94.9216 93.6344 95.6986 92.3884 95.6986H48.7304C41.3304 95.6986 35.7804 88.9275 37.2317 81.6712L46.1533 37.0618H63.7443L69.608 47.3232L57.0451 56.3093L53.4829 51.721M57.0597 56.3093L63.7443 81.0394" stroke="white" stroke-width="4" stroke-miterlimit="2" stroke-linecap="round" stroke-linejoin="round"/>
</mask>
<g mask="url(#mask0_16_45)">
<path d="M31.4819 31.198H101.846V101.562H31.4819V31.198Z" fill="#D23127"/>
</g>
</svg>
