<svg width="1202" height="925" viewBox="0 0 1202 925" fill="none" xmlns="http://www.w3.org/2000/svg">
<path d="M1200.17 256.886C1192.88 242.022 1177.14 233.86 1169.28 218.996C1160.24 202.09 1155 182.853 1144.5 166.531C1136.64 154.289 1127.02 142.922 1115.94 133.595C1091.17 112.609 1062.32 97.7445 1035.22 79.6735C1020.07 69.7635 1004.91 58.6877 992.673 45.2802C982.765 34.2043 973.731 19.048 960.325 11.7613C930.892 -4.85246 891.55 14.093 862.99 28.6664C851.916 26.3347 840.551 32.4555 837.928 43.2399C833.557 43.5314 829.477 44.1143 825.105 44.6972C822.191 44.9887 820.151 47.3204 820.734 50.2351C825.105 67.7233 816.363 85.2114 819.86 102.699C822.191 114.941 828.894 124.851 837.928 133.304C844.339 139.133 853.956 150.5 863.865 147.877C870.276 146.128 872.316 140.882 872.899 135.053C899.127 129.515 924.48 114.941 940.8 93.3725C953.623 105.323 964.988 119.022 972.857 134.761C983.056 155.164 985.388 176.733 991.508 198.593C994.422 209.086 999.085 218.413 1004.62 226.865C1016.57 237.941 1027.64 244.353 1043.96 246.102C1054.45 247.268 1065.24 248.434 1075.44 250.474C1075.73 250.474 1075.73 251.057 1075.44 251.057C1061.74 252.223 1048.04 252.514 1034.64 252.223C1029.39 252.223 1024.73 250.474 1020.36 248.142C994.713 247.851 969.651 239.107 944.006 247.559C940.8 248.725 937.594 250.183 934.389 251.64C932.057 252.514 929.726 253.68 927.103 254.555C923.023 256.304 920.109 259.218 917.486 262.424C913.989 266.505 911.075 270.877 906.995 274.083C892.716 285.742 880.184 299.441 868.527 314.014C868.236 314.597 867.362 314.014 867.362 313.431C871.15 300.024 877.853 288.948 886.596 279.038C823.066 265.922 756.33 279.912 703.583 318.095C697.171 314.597 690.468 311.1 683.766 307.893C684.057 279.038 685.223 250.474 686.389 221.91C696.588 220.744 705.04 211.126 707.371 200.05C710.285 186.06 716.114 157.496 700.377 148.752H700.086C700.96 126.308 701.542 103.865 699.794 81.7137C698.337 61.8939 685.806 59.8536 673.275 47.3204C650.835 25.4603 636.264 -8.93301 601.002 2.1428C566.031 -8.93301 551.169 25.4603 528.729 47.3204C515.907 59.8536 503.667 61.8939 502.21 81.7137C500.461 103.865 501.336 126.6 501.919 148.752H501.627C486.182 157.496 491.719 185.768 494.633 200.05C496.964 211.126 505.124 220.744 515.615 221.91C517.072 250.474 518.238 279.33 518.238 307.893C511.536 311.1 504.833 314.597 498.421 318.095C445.674 280.204 378.939 265.922 315.409 279.038C324.151 288.948 330.854 300.315 334.642 313.431C334.934 314.014 334.059 314.597 333.477 314.014C321.82 299.441 309.58 286.033 295.009 274.083C290.929 270.877 288.015 266.505 284.518 262.424C281.895 259.218 278.689 256.304 274.901 254.555C272.569 253.68 270.238 252.514 267.615 251.64C264.41 250.183 261.204 249.017 257.998 247.559C232.353 239.107 207.291 247.559 181.646 248.142C177.274 250.474 172.612 252.223 167.366 252.223C153.669 252.514 139.972 251.932 126.567 251.057C126.276 251.057 126.276 250.766 126.567 250.474C137.058 248.725 147.549 247.268 158.04 246.102C174.36 244.645 185.434 237.941 197.382 226.865C202.919 218.413 207.291 209.377 210.496 198.593C216.616 176.733 218.948 155.455 229.148 134.761C237.016 119.022 248.381 105.323 261.204 93.3725C277.524 114.941 302.877 129.515 329.105 135.053C329.688 140.59 332.019 146.128 338.139 147.877C348.048 150.5 357.956 139.133 364.076 133.304C373.401 124.851 379.813 114.941 382.144 102.699C385.641 85.2114 376.899 68.0147 381.27 50.2351C382.144 47.3204 379.813 44.9887 376.899 44.6972C372.527 44.1143 368.447 43.8228 364.076 43.2399C361.162 32.4555 350.088 26.3347 339.014 28.6664C310.454 13.8015 271.112 -4.85246 241.679 11.7613C228.273 19.3394 219.239 34.2043 209.331 45.2802C197.091 58.9792 181.937 69.7635 166.783 79.6735C139.681 97.4531 110.83 112.609 86.0592 133.595C74.9852 143.214 65.3683 154.289 57.4999 166.531C47.0087 182.853 42.0545 202.09 32.729 218.996C24.8606 233.86 9.12391 242.022 1.83836 256.886C-4.86434 270.585 8.24961 282.536 17.2837 290.697C51.9629 322.467 86.6422 354.528 121.321 386.59C148.132 411.365 175.817 440.512 213.411 446.341C226.525 448.381 239.639 445.758 252.461 443.135C263.535 446.633 274.901 449.839 286.266 452.462C301.712 532.907 343.968 608.106 400.212 668.149C399.921 660.862 399.921 653.867 401.086 646.289C406.623 612.77 415.075 577.793 441.594 554.185C442.177 553.602 443.343 554.476 443.051 555.35C431.103 574.004 421.778 592.075 417.406 613.936C413.618 634.047 408.372 656.199 411.286 676.893C411.869 680.682 412.16 684.763 412.452 688.552C420.029 715.95 424.109 744.514 424.109 773.952C423.817 802.516 417.115 829.331 411.869 857.021C407.498 880.338 423.234 890.831 441.885 900.449C489.096 924.933 545.049 926.39 597.214 924.35C598.379 924.35 599.253 924.35 600.419 924.058C600.419 924.058 600.419 924.058 600.71 924.058C600.71 924.058 600.711 924.058 601.002 924.058C602.168 924.058 603.042 924.058 604.208 924.35C656.081 926.39 712.325 924.933 759.535 900.449C778.186 890.831 794.215 880.63 789.552 857.021C784.306 829.04 777.312 802.516 777.312 773.952C777.021 744.514 781.392 715.95 788.969 688.552C789.261 684.763 789.552 680.682 790.135 676.893C793.049 656.199 787.803 634.047 784.015 613.936C779.644 592.075 770.318 574.004 758.37 555.35C757.787 554.476 758.953 553.602 759.827 554.185C786.347 577.793 794.797 612.77 800.335 646.289C801.5 653.867 801.5 661.154 801.209 668.149C857.453 608.106 899.709 532.907 915.155 452.462C926.52 449.839 937.886 446.924 948.96 443.135C961.782 445.758 974.896 448.381 988.01 446.341C1025.9 440.512 1053.29 411.365 1080.1 386.59C1114.78 354.528 1149.46 322.467 1184.14 290.697C1193.75 282.536 1206.87 270.877 1200.17 256.886ZM280.438 405.244C279.563 407.576 278.689 409.908 277.524 411.948C276.358 414.571 274.901 417.194 273.152 419.817C272.861 420.109 272.861 420.4 272.569 420.4C268.781 425.938 264.118 430.893 258.873 435.265C258.873 435.265 258.581 435.265 258.581 434.974C264.701 425.355 271.112 415.445 275.192 404.661C284.226 373.474 270.821 334.709 241.096 320.135C209.914 304.687 180.189 305.27 146.966 311.974C146.384 311.974 146.092 311.391 146.675 311.1C179.314 296.235 227.69 300.315 257.707 319.844C285.392 338.206 291.512 375.514 280.438 405.244ZM526.106 262.716C537.472 276.706 556.997 287.782 575.94 291.28C566.323 283.41 561.369 274.083 557.872 261.55C557.58 260.676 558.746 260.093 559.329 260.967C565.449 272.043 572.151 283.993 585.265 288.365C590.802 290.114 596.048 290.697 601.002 290.697C606.248 290.697 611.202 290.114 616.739 288.365C629.561 283.993 636.264 272.334 642.675 260.967C643.258 260.093 644.424 260.676 644.132 261.55C640.927 274.083 635.681 283.41 626.064 291.28C645.007 287.782 664.532 276.706 675.897 262.716C676.48 262.133 677.355 263.007 677.063 263.59C668.029 285.159 641.218 295.36 618.487 296.526C613.242 299.441 607.122 301.19 601.002 301.773C594.882 301.481 588.762 299.441 583.517 296.526C560.786 295.36 533.975 285.159 524.941 263.59C524.649 263.007 525.524 262.133 526.106 262.716ZM511.535 321.593C527.272 316.929 543.3 321.884 556.997 330.045C572.734 339.372 584.682 349.865 601.293 351.322C617.613 349.865 629.853 339.372 645.589 330.045C659.286 321.884 675.314 316.929 691.051 321.593C691.343 321.593 691.343 322.175 691.051 322.467C665.989 324.216 648.795 337.915 628.979 351.905C620.527 358.026 611.202 361.524 601.293 362.398C591.385 361.815 582.06 358.026 573.608 351.905C554.083 337.915 536.598 324.216 511.535 322.467C511.244 322.175 510.953 321.593 511.535 321.593ZM405.166 585.955C389.721 584.206 388.555 562.346 391.47 550.395C397.298 528.535 412.16 505.509 425.857 487.73H426.149C422.943 504.635 409.538 517.751 404.001 533.782C398.755 548.647 393.801 569.924 406.623 582.166C407.789 583.623 407.206 585.955 405.166 585.955ZM438.097 554.185C436.931 555.059 435.474 553.31 436.349 552.436C440.137 546.606 443.051 536.988 433.726 534.656C427.897 532.907 421.777 533.782 415.657 532.616C415.366 532.616 415.366 532.033 415.657 532.033C423.234 529.118 437.223 527.661 442.468 535.531C446.84 541.943 444.217 550.104 438.097 554.185ZM507.747 618.599C508.039 617.433 509.787 617.725 509.787 618.891C509.495 633.173 506.581 647.746 506.873 662.028C507.164 678.059 531.935 689.135 545.34 692.341C546.506 692.632 546.215 694.381 545.049 694.381C531.935 694.964 509.204 690.3 503.084 676.31C495.799 659.696 503.959 635.504 507.747 618.599ZM570.111 860.81C555.831 868.971 537.472 855.855 528.147 845.362C516.198 831.954 512.41 811.843 512.41 794.646C512.41 793.772 513.575 793.772 513.867 794.355C517.655 810.386 521.735 827.874 533.683 840.115C539.803 846.236 546.797 852.066 555.249 854.689C560.494 856.146 565.449 856.729 570.403 859.061C570.986 859.061 570.694 860.227 570.111 860.81ZM573.025 768.706C554.083 763.459 527.855 788.525 511.827 767.54C506.581 760.544 503.958 753.549 504.541 744.805C505.998 729.357 508.33 714.784 505.998 699.336C505.707 697.879 507.747 697.296 508.33 698.753C510.953 709.537 513.284 720.322 512.701 731.398C512.41 743.348 510.078 763.168 526.106 766.665C542.426 770.163 557.872 757.921 573.9 766.374C575.065 767.248 574.191 769.288 573.025 768.706ZM674.44 845.07C665.115 855.563 646.755 868.679 632.475 860.518C631.601 860.227 631.601 858.769 632.475 858.478C637.43 856.438 642.675 855.563 647.63 854.106C656.081 851.774 663.075 845.945 669.195 839.532C681.143 827.291 685.223 809.803 689.011 793.772C689.303 792.897 690.469 793.189 690.469 794.063C690.177 811.843 686.389 831.663 674.44 845.07ZM690.76 767.831C674.732 788.525 648.504 763.751 629.561 768.997C628.104 769.288 627.23 767.54 628.687 766.665C644.424 758.213 660.161 770.454 676.48 766.957C692.508 763.459 690.177 743.639 689.886 731.689C689.594 720.613 691.634 709.829 694.257 699.045C694.549 697.587 696.588 698.17 696.588 699.627C694.257 715.075 696.588 729.649 698.045 745.097C698.628 753.841 696.005 760.836 690.76 767.831ZM699.503 676.601C693.674 690.592 670.652 695.255 657.538 694.672C656.372 694.672 656.081 692.924 657.246 692.632C670.652 689.426 695.423 678.35 695.714 662.319C696.006 648.037 693.091 633.464 692.8 619.182C692.8 618.016 694.548 617.725 694.84 618.891C698.628 635.504 706.788 659.696 699.503 676.601ZM726.314 588.286C708.245 592.658 691.926 586.246 676.189 577.793C665.406 571.964 654.915 566.426 642.967 563.512C630.144 560.305 614.99 562.054 601.293 563.512C587.597 562.054 572.443 560.305 559.62 563.512C547.672 566.718 537.18 572.256 526.398 577.793C510.661 586.246 494.342 592.658 476.273 588.286C475.691 587.995 475.982 587.121 476.565 587.412C505.124 591.493 523.484 568.758 547.672 558.265C565.157 550.687 583.225 552.727 601.585 553.31C619.944 552.727 638.013 550.687 655.498 558.265C679.395 568.758 698.046 591.493 726.605 587.412C726.605 587.121 727.188 587.995 726.314 588.286ZM787.221 532.616C781.101 533.782 774.981 532.907 769.152 534.656C759.827 537.279 762.741 546.606 766.53 552.436C767.112 553.602 765.947 555.059 764.781 554.185C758.661 549.812 756.038 541.651 760.41 535.239C765.655 527.369 779.935 528.827 787.221 531.741C787.221 532.033 787.512 532.616 787.221 532.616ZM797.129 585.955C795.38 586.246 794.506 583.623 795.672 582.457C808.494 569.924 803.54 548.647 798.295 534.073C792.466 518.042 779.061 504.926 776.147 488.021C776.147 488.021 776.147 487.73 776.438 488.021C790.135 505.801 804.998 528.535 810.826 550.687C814.032 562.054 812.574 584.206 797.129 585.955ZM892.424 391.254C862.116 409.908 826.271 418.943 791.009 416.903C787.803 421.858 784.598 426.521 781.101 431.185C760.41 460.332 735.056 483.649 700.086 493.559C669.778 502.012 632.184 500.846 610.036 475.779C605.665 470.533 602.751 464.704 601.293 458.291C599.545 464.704 596.922 470.824 592.551 475.779C570.694 500.846 532.809 502.012 502.501 493.559C467.531 483.941 442.177 460.332 421.486 431.185C417.989 426.521 414.783 421.566 411.578 416.903C376.024 418.943 340.179 409.908 310.163 391.254C309.58 390.671 310.163 389.796 310.746 390.088C341.636 403.787 373.11 409.616 406.623 409.033C400.504 399.415 394.384 389.796 387.681 380.469C377.773 366.187 368.739 353.071 362.036 336.749C361.745 336.457 362.619 336.166 362.619 336.457C368.156 344.91 372.236 353.946 378.938 361.815C384.184 368.228 389.721 374.64 394.675 381.344C403.126 392.419 410.703 403.787 418.572 415.445C436.64 441.969 458.496 470.242 489.97 481.609C518.529 492.102 581.185 500.846 592.259 460.623C599.254 435.265 598.671 408.159 601.002 381.927C603.625 408.159 602.751 434.974 609.745 460.623C620.819 500.846 683.474 492.102 712.034 481.609C743.507 470.242 765.073 441.969 783.432 415.445C791.301 404.078 798.877 392.419 807.329 381.344C812.574 374.64 817.82 368.228 823.066 361.815C829.768 353.946 833.557 344.91 839.385 336.457C839.677 336.166 840.26 336.457 839.968 336.749C833.557 353.071 824.231 366.187 814.323 380.469C807.912 389.796 801.792 399.415 795.38 409.033C828.894 409.616 860.368 403.787 891.258 390.088C892.424 389.796 893.298 390.962 892.424 391.254ZM1055.33 311.974C1022.11 305.562 992.09 304.979 961.2 320.135C931.475 334.709 918.069 373.474 927.103 404.661C931.183 415.154 937.594 425.064 943.714 434.974C943.714 435.265 943.714 435.265 943.423 435.265C938.177 430.602 933.514 425.647 929.726 420.4C929.435 420.4 929.143 420.109 929.143 419.817C927.686 417.194 926.229 414.863 924.772 411.948C923.606 409.616 922.732 407.576 921.858 405.244C910.784 375.514 916.904 338.206 944.88 320.135C974.897 300.607 1023.27 296.526 1055.91 311.391C1056.2 311.391 1055.91 312.266 1055.33 311.974Z" fill="#00346E"/>
</svg>
