<svg width="639" height="500" viewBox="0 0 639 500" fill="none" xmlns="http://www.w3.org/2000/svg">
<path fill-rule="evenodd" clip-rule="evenodd" d="M372.059 7.05997C414.91 10.5721 454.492 26.9087 492.236 47.5422C530.7 68.5697 568.649 91.8484 593.417 128.07C619.172 165.737 650.335 213.197 634.878 256.152C618.254 302.349 545.447 300.013 517.122 340.088C492.883 374.382 519.781 431.351 490.08 461.018C461.157 489.909 412.68 480.801 372.059 484.987C327.216 489.609 274.614 514.758 239.139 486.882C202.35 457.973 222.939 396.18 204.343 353.195C188.609 316.827 140.823 295.763 139.319 256.152C137.819 216.63 180.919 190.951 196.811 154.75C215.206 112.845 205.009 56.3298 239.971 26.8658C274.635 -2.34737 326.919 3.36012 372.059 7.05997Z" fill="#588EF7" fill-opacity="0.4"/>
<path d="M492.248 279.046C493.307 286.517 491.851 293.609 489.6 300.447C497.676 284.238 507.34 268.536 507.473 249.921C507.605 232.952 503.766 216.236 504.295 199.268C504.56 192.303 505.222 185.085 506.281 177.994C500.853 190.277 496.881 202.814 496.881 216.237C496.881 218.769 492.91 218.769 492.777 216.237C492.115 202.054 496.219 188.377 502.309 175.461C495.558 176.601 488.673 177.107 481.789 176.981C484.966 177.234 488.276 177.36 491.586 177.487C493.969 177.614 494.498 180.906 492.115 181.539C484.966 183.312 477.42 182.806 470.006 180.906C470.668 202.434 467.755 224.341 463.254 245.615C467.49 257.392 470.138 270.815 479.671 279.553C481.524 281.199 479.141 284.365 477.023 282.972C471.595 279.299 468.152 273.981 465.769 268.029C466.696 271.828 467.888 275.627 469.212 279.426C472.919 290.316 477.552 301.333 480.862 312.604C485.363 301.713 490.527 291.076 490.924 279.173C490.924 278.16 492.115 278.16 492.248 279.046Z" fill="#00346E"/>
<path d="M589.534 139.127C586.621 136.087 582.12 133.935 578.413 131.909C573.25 128.869 568.086 126.084 562.791 123.424C558.687 121.398 554.715 119.372 550.743 117.219C548.625 114.18 546.242 111.141 543.859 108.228C536.445 99.744 527.045 94.1722 516.321 90.2466C511.29 88.3471 506.127 86.8276 500.831 85.6879C496.198 84.9281 491.564 84.4216 486.798 84.4216C470.117 84.1683 453.303 87.4607 438.21 94.2989C438.078 94.2989 437.945 94.1722 438.078 94.0456C446.418 87.4607 455.951 83.4085 466.012 81.2558C449.066 65.1735 426.824 54.9162 402.464 53.9032C383.267 53.1434 366.719 59.475 352.685 69.6056C339.711 70.2388 327.001 72.898 314.159 75.4306C302.509 77.8367 290.858 79.7362 279.075 81.2558C277.486 80.7492 275.898 80.116 274.309 79.6095C268.749 77.5834 263.188 75.4307 257.495 73.4046C254.053 72.2649 250.611 71.2518 247.036 70.2388C246.11 62.0077 242.535 54.4098 236.975 47.6983C233.797 43.7727 229.693 40.7334 225.324 38.0742C219.764 34.7817 213.144 33.642 207.451 30.4762C202.023 27.4371 200.037 19.7125 197.125 14.9005C194.477 10.4684 191.035 6.66943 186.798 3.75689C176.339 -3.71441 163.894 2.11067 154.627 8.18901C148.802 11.988 143.109 15.2804 136.489 17.813C130.532 20.0924 124.441 21.9919 118.749 24.7778C108.29 29.9697 101.405 39.847 99.0223 50.7374C97.6984 56.6891 98.4927 63.0207 98.7575 69.099C99.0223 76.0638 97.5659 82.902 98.6251 89.8667C99.287 94.4255 102.464 98.3511 106.436 100.63C109.878 102.657 114.38 100.757 118.087 101.137C123.515 109.115 126.295 117.726 129.87 126.97C131.591 131.402 135.695 132.542 140.064 132.289C143.638 139.886 148.007 147.104 152.773 153.943C154.097 155.969 156.613 160.781 159.79 160.274C162.438 159.894 165.218 158.628 167.866 157.108C168.793 159.388 169.72 161.667 171.97 163.187C174.088 164.706 177.133 164.453 180.178 163.44C180.973 165.086 182.297 166.479 183.885 167.239C186.268 168.505 188.387 168.885 191.035 169.265C194.08 169.645 195.404 172.431 197.654 173.824C200.037 173.697 202.42 173.444 204.671 172.811C214.071 170.152 217.381 161.414 221.617 153.816C225.721 146.598 233.4 137.1 233.665 128.616C233.797 120.892 229.561 114.18 225.456 107.849C225.324 107.595 225.721 107.215 225.854 107.469C229.031 110.888 232.738 114.94 234.856 119.499C242.138 128.996 252.862 135.961 260.011 145.585C260.276 145.965 259.746 146.345 259.349 146.091C253.656 141.786 248.625 136.594 243.727 131.529C241.343 129.123 238.828 126.843 236.445 124.311C236.71 125.704 236.842 127.223 236.71 128.616C236.048 135.961 232.341 142.546 228.501 149.004C232.738 148.118 236.975 148.371 241.344 149.89C241.608 150.017 241.476 150.397 241.211 150.397C236.048 149.257 231.017 150.27 226.383 152.55C225.721 153.563 225.192 154.576 224.662 155.589C220.426 163.187 216.719 172.557 208.246 176.483C206.26 177.369 204.009 178.003 201.626 178.256C201.494 178.383 201.494 178.636 201.361 178.763C192.359 178.763 183.356 180.409 175.015 183.448C165.086 187.12 156.745 194.338 149.464 201.43C142.314 208.394 136.489 216.499 133.047 225.87C130.796 231.948 130.267 238.533 130.532 245.118C117.822 249.55 106.833 256.135 98.2279 267.278C98.0955 267.532 97.9632 267.658 97.6984 267.911C97.3012 268.925 96.904 269.811 96.5068 270.824C91.7407 283.867 91.0788 300.456 98.8899 312.613C99.287 313.119 98.3603 313.626 97.9631 313.119C95.3153 308.94 93.1971 304.635 91.7408 300.329C91.2112 310.08 88.9605 319.577 85.3859 327.935C85.2535 328.315 84.5915 328.188 84.7239 327.808C87.107 316.412 88.6957 305.268 87.5042 293.618C87.2394 290.705 86.8422 287.793 86.3126 285.007C81.017 278.422 74.5298 272.47 69.3665 266.772C57.8484 253.982 47.3895 240.939 39.9755 225.743C39.9755 225.616 40.108 225.49 40.108 225.363C38.9164 225.236 37.7249 225.363 36.6657 225.743C32.5616 226.883 28.7222 228.022 24.4857 226.756C17.6013 224.857 9.26063 222.071 8.46628 214.22C8.33389 213.333 9.65777 213.333 9.92255 214.093C12.1732 220.424 20.9111 223.084 27.2659 222.704C31.5025 222.451 35.4742 219.918 39.8432 220.551C41.4319 220.804 43.0205 221.058 44.6092 221.437C47.1247 221.437 49.7725 221.311 52.1556 220.804C55.4654 220.045 57.1864 217.639 58.2456 214.853C60.761 214.22 63.1441 213.333 64.8652 211.687C66.1891 210.294 66.851 207.888 67.513 206.242C67.513 206.242 67.513 206.242 67.513 206.115C71.22 204.849 75.0594 203.202 76.6481 200.417C77.31 199.277 77.8396 198.011 78.1043 196.618C81.6789 193.325 81.9437 188.387 81.6789 183.321C81.2818 175.85 78.7663 172.051 71.4847 169.138C67.3806 167.492 63.5413 165.339 59.7019 163.06C57.0541 161.414 53.2147 157.868 49.6401 158.248C44.0796 159.008 42.4909 162.427 41.0346 166.353C32.6939 175.09 23.8237 183.321 14.8211 191.426C6.87756 198.517 -1.59552 208.014 0.257968 219.158C2.11145 229.922 9.12822 239.673 14.8211 249.297C17.7337 260.44 19.5872 271.964 20.6463 283.614C22.235 302.735 23.6914 321.983 32.8264 339.459C37.1953 347.816 44.212 354.275 50.964 360.859C56.7893 366.558 60.8935 375.675 68.5722 379.221C75.3242 382.26 82.6057 377.702 87.769 373.903C89.2253 372.763 90.5492 371.623 92.0055 370.357C117.028 364.405 139.931 353.768 161.114 339.205C171.705 331.861 183.885 323.376 191.432 313.119C196.992 305.521 198.316 295.391 201.891 286.653C216.189 291.085 228.766 299.949 242.667 305.521C255.509 310.587 269.013 311.853 282.253 309.7C280.796 307.294 279.208 305.015 277.222 302.862C270.072 294.631 260.54 288.932 253.656 280.448C253.391 280.068 253.788 279.688 254.185 279.942C264.38 288.679 276.692 293.618 284.371 305.015C285.43 306.534 286.357 308.054 287.283 309.573C296.683 317.171 304.494 326.036 308.334 337.812C311.379 347.183 307.672 355.414 307.407 364.658C307.407 365.925 307.539 367.064 307.937 368.331C307.804 368.457 307.804 368.584 307.937 368.837C308.069 368.964 308.201 369.091 308.201 369.344C309.261 371.876 311.114 374.029 313.629 375.295C320.646 380.614 330.443 382.26 339.578 383.4C356.392 385.553 373.206 384.286 390.019 381.754C406.436 379.348 422.72 375.549 438.872 371.497C452.111 368.204 465.218 364.152 477.398 358.327C474.221 350.222 473.029 341.358 474.353 332.747C475.412 325.782 477.795 319.198 480.575 312.739C477.266 301.469 472.632 290.452 468.925 279.562C467.601 275.763 466.542 271.964 465.483 268.165C462.967 262.213 461.379 255.755 459.393 250.056C453.965 234.987 447.345 220.171 440.064 205.862C439.799 205.355 440.593 204.975 440.858 205.355C449.331 217.132 456.48 229.162 461.908 242.585C462.305 243.598 462.703 244.738 463.1 245.751C467.601 224.477 470.381 202.569 469.852 181.042C460.187 178.509 450.787 173.824 442.976 169.392C432.385 163.313 419.94 156.475 413.188 146.218C413.85 149.637 414.115 153.056 414.247 156.602C414.247 156.855 414.247 157.108 414.247 157.362C417.16 185.221 391.211 207.635 365.395 216.119C356.524 219.032 347.257 221.058 337.99 222.324C332.297 223.084 326.074 224.73 320.381 223.337C303.435 247.904 270.602 263.479 240.549 266.772C230.752 267.785 220.955 267.278 211.158 266.392C206.127 266.012 201.096 265.505 196.33 264.113C195.933 278.422 180.576 291.972 169.852 300.076C157.804 309.194 142.976 316.158 127.222 315.905C126.825 315.905 126.692 315.272 127.089 315.272C142.182 312.866 155.156 306.788 166.542 297.037C176.472 288.679 191.432 275.889 191.035 262.34C190.108 261.833 189.049 261.453 188.122 260.82C180.708 256.515 174.221 250.69 166.41 246.891C157.539 242.585 148.802 240.432 139.402 237.9C139.269 237.9 139.402 237.773 139.402 237.773C154.627 237.14 169.058 243.978 181.37 251.576C189.313 256.515 196.86 260.44 206.524 261.327C215.395 262.086 224.397 262.973 233.268 262.466C264.644 260.693 297.213 245.498 315.88 220.931C314.424 219.411 313.1 217.385 312.173 215.992C309.525 211.813 307.01 207.508 304.494 203.202C299.463 194.592 293.771 186.234 289.402 177.37C289.137 176.99 289.799 176.483 290.064 176.863C299.993 189.02 307.407 203.076 317.072 215.486C322.5 222.577 335.342 218.652 343.153 217.132C349.508 215.992 355.995 214.599 362.085 212.573C383.135 205.608 401.802 191.299 408.554 171.671C408.554 171.418 408.554 171.038 408.687 170.785C408.819 170.531 408.951 170.278 409.084 170.025C409.746 167.745 410.275 165.339 410.673 162.807C410.937 159.134 410.54 155.462 410.54 152.17C410.54 147.864 410.275 143.685 409.746 139.507C409.746 139.507 409.746 139.507 409.746 139.38C403.788 137.86 398.095 133.808 393.991 130.262C393.462 129.756 394.124 128.869 394.786 129.249C400.081 132.922 406.171 136.594 412.923 135.328C417.557 134.441 421.529 132.668 425.368 129.882C433.312 124.184 440.99 118.106 448.934 112.281C449.331 112.027 449.861 112.661 449.463 112.914C444.565 117.852 439.402 122.411 434.503 127.223C430.267 131.275 426.295 135.454 420.999 138.24C418.219 139.76 415.306 140.14 412.394 139.76C417.425 144.319 421.396 150.017 427.089 153.816C433.047 157.868 439.402 161.54 445.624 165.086C452.641 169.012 459.79 172.684 467.469 174.964C472.235 176.357 476.869 176.99 481.635 177.37C488.519 177.37 495.403 176.863 502.155 175.85C502.288 175.47 502.553 174.963 502.685 174.584C507.848 164.073 514.203 150.903 525.456 145.205C525.721 145.078 525.986 145.458 525.853 145.585C516.586 154.322 511.82 165.593 506.789 176.863C506.524 177.37 506.392 177.876 506.127 178.383C505.068 185.474 504.406 192.692 504.141 199.657C503.479 216.626 507.319 233.341 507.319 250.31C507.186 268.925 497.522 284.627 489.446 300.836C486.93 308.687 483.488 316.412 481.237 324.263C477.53 337.686 478.854 350.476 484.812 361.999C489.313 367.951 494.874 373.523 496.86 380.867C497.257 382.514 498.051 385.046 499.508 386.819C505.2 388.212 512.349 384.666 510.364 377.702C509.437 374.409 508.113 371.37 507.054 368.078C504.803 360.986 502.685 353.641 502.553 346.297C502.553 345.537 503.612 345.41 503.876 346.17C506.26 354.654 508.245 362.886 511.952 370.863C514.071 375.422 515.924 379.854 513.806 384.666C512.747 387.199 510.893 388.972 508.775 390.238C512.085 392.391 516.189 392.897 518.837 389.098C519.499 388.212 519.499 386.566 519.499 385.553C519.896 381.754 519.896 378.081 520.028 374.282C521.087 373.396 522.147 372.51 523.073 371.75C524.53 370.61 526.648 369.217 527.575 367.571C528.369 366.051 528.634 364.532 528.766 362.886C534.459 356.681 535.386 348.323 532.076 339.838C528.369 330.088 524.397 320.97 522.676 311.346C523.735 306.661 525.721 302.102 527.575 297.543C530.487 290.705 533.267 283.867 536.312 277.029C542.138 263.606 548.625 250.31 556.039 237.646C563.056 225.743 571.926 214.979 579.34 203.329C585.695 193.578 588.21 181.928 586.886 170.658C593.638 160.148 598.007 147.864 589.534 139.127ZM292.447 299.063C314.159 300.076 323.956 276.902 344.212 273.863C340.902 271.457 338.916 268.038 337.063 263.986C333.223 255.122 330.84 245.878 326.736 237.14C326.604 236.76 327.001 236.507 327.266 236.887C331.635 242.332 334.415 248.663 337.328 254.995C339.446 259.807 342.094 268.038 346.727 272.597C353.082 265.505 363.806 261.073 372.147 257.274C383.4 252.209 397.566 249.676 403.259 237.9C403.391 237.52 404.053 237.773 403.921 238.153C401.538 248.03 391.343 252.209 382.738 256.261C372.014 261.327 358.907 266.519 350.302 274.876C350.434 274.876 350.567 275.003 350.699 275.13C351.626 275.509 351.361 276.902 350.302 276.649C349.905 276.522 349.508 276.396 349.11 276.269C348.846 276.649 348.448 276.902 348.184 277.282C351.626 284.627 354.274 292.605 356.789 300.203C357.848 303.495 358.907 307.041 360.231 310.333C368.969 302.609 378.766 296.404 389.755 291.972C395.448 289.692 401.67 288.426 407.23 285.893C413.982 282.854 417.689 277.789 420.205 271.204C420.337 270.824 420.999 270.951 420.867 271.331C419.543 276.269 417.954 281.714 413.85 285.134C409.613 288.806 404.583 290.325 399.419 292.351C385.783 297.417 372.941 304.761 361.688 313.879C361.952 314.385 362.217 314.892 362.482 315.272C364.468 318.944 367.116 322.237 369.499 325.782C369.896 326.416 369.102 327.429 368.307 326.922C366.851 325.782 365.527 324.643 364.203 323.25C366.454 332.367 367.248 341.865 369.102 351.109C370.161 356.427 371.352 361.746 373.073 366.938C375.324 374.156 380.355 374.409 387.107 375.169C387.901 375.296 387.901 376.435 387.107 376.309C381.679 376.055 377.707 378.335 373.471 374.156C370.293 370.99 369.499 364.912 368.572 360.859C365.527 348.07 362.747 334.52 362.614 321.35C360.628 319.071 359.04 316.538 357.584 313.879C351.758 318.184 345.403 322.11 339.181 325.909C334.415 328.822 330.178 331.228 324.353 330.721C324.088 330.721 323.956 330.214 324.353 330.214C331.105 329.835 336.666 324.263 341.961 320.59C346.727 317.298 351.229 313.879 356.26 310.966C355.465 309.067 354.671 307.167 354.141 305.268C351.361 296.404 348.448 287.16 346.86 278.042C346.33 278.042 345.668 277.662 345.271 277.282C326.869 280.828 313.365 305.521 292.844 299.443C292.05 299.443 292.05 298.936 292.447 299.063ZM361.952 71.885C350.037 87.8406 335.474 100.757 319.322 112.787C311.511 118.612 303.435 123.804 295.492 129.503C286.224 136.214 276.295 146.218 281.988 158.121C282.253 158.501 282.253 158.881 282.12 159.261C282.385 159.768 282.517 160.274 282.782 160.907C283.047 161.92 283.179 163.06 283.576 164.073C283.709 164.453 283.179 164.58 282.914 164.326C281.988 163.06 280.531 162.047 279.737 160.654C279.34 160.021 278.943 159.261 278.281 158.881C267.557 156.982 257.76 157.362 248.36 163.06C240.284 167.872 232.076 172.431 223.735 176.736C208.113 184.588 192.094 192.439 175.545 198.137C175.28 198.264 175.148 197.884 175.412 197.757C193.682 188.133 212.217 179.016 230.09 168.759C237.637 164.453 245.315 158.375 253.656 155.715C261.732 153.056 269.411 153.563 277.486 155.462C271.661 138.747 294.433 125.83 306.348 117.599C326.074 103.923 345.668 89.3602 361.29 71.2518C361.423 70.8719 362.217 71.5051 361.952 71.885ZM521.882 126.083C509.172 105.189 484.15 102.53 461.114 103.543C460.717 103.543 460.717 103.036 461.114 103.036C482.429 100.757 516.586 99.6174 522.808 125.704C523.073 126.337 522.279 126.717 521.882 126.083Z" fill="#00346E"/>
</svg>
