<svg width="618" height="399" viewBox="0 0 618 399" fill="none" xmlns="http://www.w3.org/2000/svg">
<rect width="618" height="399" rx="10" fill="#F4F5F8"/>
<g clip-path="url(#clip0_481_203)">
<path d="M466.538 85.4349L430.204 85.7891C428.497 77.3775 422.758 55.3069 427.926 49.2869C428.162 47.0211 429.262 44.9335 430.997 43.4587C432.732 41.9839 434.969 41.2355 437.242 41.3692C442.874 32.5499 452.254 33.874 458.594 39.3821C464.974 41.5847 467.38 45.4978 466.538 50.808C471.264 54.946 472.135 59.9805 470.014 65.7113L466.538 85.4349Z" fill="#2F2E41"/>
<path d="M463.039 107.828L436.825 104.197L431.582 96.5307C438.804 91.738 441.36 85.0437 438.035 75.9533L456.183 75.5498C455.332 83.645 458.008 89.9128 465.458 93.7064L463.039 107.828Z" fill="#FFB9B9"/>
<path d="M430.627 344.381L429.625 358.09C429.58 358.711 429.667 359.334 429.882 359.918C430.097 360.502 430.435 361.033 430.872 361.476C431.309 361.918 431.835 362.262 432.416 362.485C432.997 362.707 433.619 362.803 434.239 362.765L441.278 362.339C441.604 362.319 441.922 362.227 442.209 362.071C442.495 361.914 442.744 361.696 442.937 361.433C443.13 361.169 443.263 360.866 443.326 360.545C443.389 360.225 443.381 359.894 443.301 359.577L439.395 343.942L430.627 344.381Z" fill="#E6E6E6"/>
<path d="M453.415 343.942L449.508 359.577C449.429 359.894 449.42 360.225 449.483 360.545C449.546 360.866 449.679 361.169 449.872 361.433C450.065 361.696 450.314 361.914 450.601 362.071C450.888 362.227 451.205 362.319 451.531 362.339L458.57 362.765C459.191 362.803 459.812 362.707 460.393 362.485C460.974 362.262 461.501 361.918 461.938 361.476C462.375 361.033 462.712 360.502 462.927 359.918C463.142 359.334 463.23 358.711 463.184 358.09L462.182 344.381L453.415 343.942Z" fill="#E6E6E6"/>
<path d="M462.635 346.284L453.137 345.331L443.681 244.204L440.107 345.005L430.775 344.671L415.047 205.066H475.137L462.635 346.284Z" fill="#588EF7"/>
<path d="M448.117 82.4089C458.14 82.4089 466.265 74.2799 466.265 64.2523C466.265 54.2247 458.14 46.0957 448.117 46.0957C438.094 46.0957 429.969 54.2247 429.969 64.2523C429.969 74.2799 438.094 82.4089 448.117 82.4089Z" fill="#FFB9B9"/>
<path d="M484.012 208.295L410.613 209.101C421.506 167.615 428.022 129.077 416.663 102.583L434.811 93.7064C443.561 102.838 453.307 101.896 463.848 92.8994L481.189 97.3377C478.219 132.08 479.55 169.29 484.012 208.295Z" fill="#588EF7"/>
<path d="M390.449 165.525L436.021 183.682L446.21 186.68C446.666 186.814 447.144 186.855 447.616 186.799C448.087 186.744 448.543 186.594 448.955 186.357C449.368 186.121 449.728 185.804 450.015 185.425C450.301 185.046 450.508 184.613 450.624 184.152C450.826 183.344 450.735 182.49 450.368 181.742C450 180.994 449.38 180.401 448.617 180.067L438.038 176.823L406.178 158.263L412.832 140.711L398.918 133.247L390.449 165.525Z" fill="#FFB9B9"/>
<path d="M390.852 132.44C399.522 135.825 406.418 141.6 411.823 149.387L428.761 124.774L416.662 102.583L390.852 132.44Z" fill="#588EF7"/>
<path d="M468.572 61.3095C461.207 59.4108 453.965 59.1501 446.925 61.5584C442.441 63.7314 437.055 63.5312 431.066 61.7408V43.626L463.399 44.4886L468.572 61.3095Z" fill="#2F2E41"/>
<path d="M435.867 144.371C434.442 144.373 433.076 144.94 432.068 145.948C431.061 146.956 430.494 148.323 430.492 149.749L432.614 194.182C432.615 195.607 433.182 196.974 434.19 197.982C435.198 198.99 436.564 199.557 437.989 199.559H462.246C463.671 199.557 465.037 198.99 466.045 197.982C467.052 196.974 467.619 195.607 467.621 194.182L469.742 149.749C469.741 148.323 469.174 146.956 468.166 145.948C467.158 144.94 465.792 144.373 464.367 144.371H435.867Z" fill="#3F3D56"/>
<path d="M504.692 162.169L464.97 177.993L461.974 179.187C461.878 179.224 461.783 179.256 461.682 179.288L451.641 182.244C450.358 182.62 448.581 180.891 447.541 179.697C447.027 179.121 446.735 178.38 446.719 177.608C446.704 176.836 446.965 176.084 447.456 175.488C447.595 175.328 447.748 175.181 447.913 175.048C448.3 174.747 448.755 174.546 449.239 174.464L459.269 172.49C459.628 172.42 459.974 172.291 460.292 172.108L464.97 169.381L489.258 155.233C489.933 154.841 490.447 154.221 490.709 153.484C490.97 152.747 490.961 151.942 490.684 151.211L486.049 138.98C485.764 138.231 485.762 137.405 486.042 136.655C486.322 135.905 486.866 135.283 487.571 134.904L495.251 130.786C495.69 130.551 496.177 130.418 496.674 130.397C497.172 130.377 497.668 130.47 498.124 130.669C498.581 130.869 498.986 131.169 499.31 131.548C499.634 131.926 499.867 132.374 499.993 132.856L506.66 158.263C506.865 159.043 506.778 159.87 506.416 160.589C506.053 161.309 505.44 161.871 504.692 162.169Z" fill="#FFB9B9"/>
<path d="M506.999 128.002C498.329 131.386 491.432 137.162 486.028 144.948L469.09 120.336L481.189 97.3379L506.999 128.002Z" fill="#588EF7"/>
<path d="M460.197 80.4122C452.258 83.7161 443.933 83.582 435.268 80.4122C437.79 76.1065 434.021 72.7343 432.086 68.3877L464.441 67.4258C461.966 71.2017 458.316 75.6629 460.197 80.4122Z" fill="white"/>
<path d="M464.098 68.1446L463.723 67.7694L464.253 67.2388L467.422 63.5391L467.825 63.884L464.642 67.5986L464.098 68.1446Z" fill="white"/>
<path d="M429.867 65.8959L429.527 66.3037L432.71 68.957L433.049 68.5491L429.867 65.8959Z" fill="white"/>
<path d="M465.012 71.2646L459.441 80.0195L459.889 80.3045L465.459 71.5496L465.012 71.2646Z" fill="white"/>
<path d="M430.451 71.2639L430.004 71.5488L435.573 80.3046L436.021 80.0196L430.451 71.2639Z" fill="white"/>
<path d="M466.029 168.63V178.243L462.684 179.576C462.578 179.618 462.471 179.653 462.359 179.689L451.151 182.988C449.718 183.409 447.735 181.478 446.574 180.145C446 179.503 445.674 178.676 445.657 177.814C445.64 176.952 445.931 176.113 446.48 175.448C446.635 175.269 446.805 175.104 446.989 174.956C447.421 174.62 447.929 174.396 448.469 174.304L459.665 172.101C460.066 172.022 460.452 171.878 460.807 171.674L466.029 168.63Z" fill="white"/>
<path d="M470.878 134.339H468.961C468.961 107.217 463.38 88.3161 457.94 88.3161L457.461 86.3984C462.339 86.3984 465.449 94.2648 467.199 100.864C469.571 109.811 470.878 121.699 470.878 134.339Z" fill="#3F3D56"/>
<path d="M426.792 127.627H424.875C424.875 102.788 430.495 87.3574 438.771 87.3574L438.292 89.275C432.568 89.275 426.792 101.134 426.792 127.627Z" fill="#3F3D56"/>
<path d="M469.921 139.613C472.567 139.613 474.713 137.466 474.713 134.818C474.713 132.171 472.567 130.024 469.921 130.024C467.274 130.024 465.129 132.171 465.129 134.818C465.129 137.466 467.274 139.613 469.921 139.613Z" fill="#3F3D56"/>
<path d="M419.128 139.133H417.211C417.211 132.261 421.08 126.669 425.836 126.669V128.587C422.137 128.587 419.128 133.318 419.128 139.133Z" fill="#3F3D56"/>
<path d="M434.461 139.133H432.544C432.544 133.318 429.535 128.587 425.836 128.587V126.669C430.592 126.669 434.461 132.261 434.461 139.133Z" fill="#3F3D56"/>
<path d="M433.503 141.531C434.561 141.531 435.419 140.672 435.419 139.613C435.419 138.554 434.561 137.695 433.503 137.695C432.444 137.695 431.586 138.554 431.586 139.613C431.586 140.672 432.444 141.531 433.503 141.531Z" fill="#3F3D56"/>
<path d="M418.167 141.531C419.225 141.531 420.083 140.672 420.083 139.613C420.083 138.554 419.225 137.695 418.167 137.695C417.108 137.695 416.25 138.554 416.25 139.613C416.25 140.672 417.108 141.531 418.167 141.531Z" fill="#3F3D56"/>
<path d="M187.179 75.1689L153.516 80.8722C152.685 81.0141 151.83 80.8424 151.118 80.3902C150.405 79.9381 149.886 79.2376 149.66 78.4245C147.228 69.6424 142.143 58.186 147.08 52.4348C147.332 50.0154 148.506 47.7862 150.359 46.2113C152.212 44.6364 154.601 43.8372 157.028 43.98C163.042 34.5624 173.058 35.9764 179.828 41.8581C186.641 44.2102 189.21 48.3887 188.312 54.0592C191.255 56.6368 192.798 59.5401 193.124 62.7268C193.278 64.5001 193.052 66.286 192.462 67.9652C191.872 69.6444 190.93 71.1784 189.7 72.4647L187.179 75.1689Z" fill="#2F2E41"/>
<path d="M181.948 101.683L155.852 100.148C158.409 94.2749 159.431 88.6198 158.41 83.2539H177.854C177.81 87.3738 179.859 94.5005 181.948 101.683Z" fill="#9F616A"/>
<path d="M150.536 342.932L149.466 357.572C149.417 358.234 149.511 358.9 149.74 359.523C149.97 360.147 150.33 360.714 150.797 361.186C151.264 361.659 151.826 362.027 152.446 362.264C153.066 362.502 153.73 362.604 154.393 362.564L161.909 362.108C162.257 362.087 162.597 361.989 162.903 361.822C163.209 361.655 163.475 361.422 163.681 361.141C163.887 360.859 164.029 360.536 164.096 360.193C164.164 359.851 164.155 359.498 164.07 359.159L159.898 342.464L150.536 342.932Z" fill="#E6E6E6"/>
<path d="M174.868 342.464L170.696 359.159C170.611 359.498 170.602 359.851 170.669 360.193C170.737 360.536 170.878 360.859 171.085 361.141C171.291 361.422 171.557 361.655 171.863 361.822C172.169 361.989 172.509 362.087 172.857 362.108L180.373 362.564C181.036 362.604 181.7 362.502 182.32 362.264C182.94 362.027 183.502 361.659 183.969 361.186C184.436 360.714 184.796 360.147 185.025 359.523C185.255 358.9 185.349 358.234 185.3 357.572L184.23 342.932L174.868 342.464Z" fill="#E6E6E6"/>
<path d="M184.715 344.964L174.573 343.946L164.475 235.959L160.658 343.598L150.694 343.241L133.898 194.166H198.065L184.715 344.964Z" fill="#588EF7"/>
<path d="M168.645 89.4681C179.348 89.4681 188.024 80.7876 188.024 70.0797C188.024 59.3719 179.348 50.6914 168.645 50.6914C157.942 50.6914 149.266 59.3719 149.266 70.0797C149.266 80.7876 157.942 89.4681 168.645 89.4681Z" fill="#9F616A"/>
<path d="M190.484 60.8181C182.619 59.4476 174.886 59.2595 167.368 60.9978C162.58 62.5661 156.829 62.4216 150.434 61.1294V48.0547L184.96 48.6773L190.484 60.8181Z" fill="#2F2E41"/>
<path d="M181.542 85.637C173.064 89.165 164.175 89.0218 154.922 85.637C157.614 81.0391 153.59 77.4381 151.523 72.7967L186.073 71.7695C183.431 75.8016 179.532 80.5654 181.542 85.637Z" fill="white"/>
<path d="M149.144 70.1488L148.805 70.5566L152.203 73.3897L152.543 72.9818L149.144 70.1488Z" fill="white"/>
<path d="M186.699 75.8766L180.75 85.2256L181.198 85.5106L187.146 76.1616L186.699 75.8766Z" fill="white"/>
<path d="M149.764 75.8762L149.316 76.1611L155.263 85.511L155.711 85.2261L149.764 75.8762Z" fill="white"/>
<path d="M131.8 158.507L116.961 149.292L129.616 112.211C131.027 108.385 133.731 105.172 137.259 103.128L141.522 100.659L141.893 138.067L131.8 158.507Z" fill="#588EF7"/>
<path d="M195.942 176.517L193.747 157.704C193.63 147.774 195.318 138.174 199.344 129.328L201.391 101.683L178.877 92.4688C178.808 92.9278 178.749 93.3865 178.683 93.8454L168.131 99.1238L157.841 96.7839L157.898 93.4926L137.43 102.707C144.199 134.19 140.507 166.883 128.867 205.5L155.831 212.876L156.056 199.923L180.086 198.205C180.334 202.408 180.533 206.536 180.648 210.572C194.208 215.567 194.674 215.484 207.029 208.333C202.109 197.984 198.213 187.214 195.942 176.517Z" fill="#588EF7"/>
<path d="M230.559 153.9L216.743 149.293L194.645 123.554L201.392 101.684L232.094 144.686L230.559 153.9Z" fill="#588EF7"/>
<path d="M187.259 173.826C187.485 174.818 188.095 175.68 188.956 176.223C189.816 176.766 190.857 176.946 191.849 176.723L203.577 174.065L201.882 166.576L190.154 169.233C189.162 169.458 188.299 170.068 187.756 170.929C187.213 171.791 187.034 172.832 187.259 173.826Z" fill="#E6E6E6"/>
<path d="M197.809 165.163L204.461 177.449C215.649 174.327 225.346 164.485 234.65 152.876L232.092 144.686L216.229 148.781L197.809 165.163Z" fill="#588EF7"/>
<path d="M111.078 126.623L123.848 128.904L153.037 170.426L137.531 166.776L111.078 126.623Z" fill="#E6E6E6"/>
<path d="M108.812 126.115C108.617 126.118 108.427 126.173 108.261 126.275C108.095 126.377 107.96 126.521 107.868 126.693C107.777 126.865 107.734 127.059 107.743 127.253C107.753 127.448 107.814 127.636 107.921 127.799L135.204 169.214C135.357 169.446 135.592 169.61 135.862 169.673L148.556 172.662C148.77 172.712 148.994 172.696 149.199 172.616C149.404 172.536 149.579 172.395 149.703 172.213C149.826 172.031 149.891 171.816 149.889 171.596C149.887 171.376 149.818 171.161 149.691 170.981L119.735 128.368C119.654 128.252 119.551 128.153 119.431 128.077C119.312 128.001 119.179 127.949 119.039 127.924L109.017 126.134C108.949 126.122 108.881 126.115 108.812 126.115Z" fill="#3F3D56"/>
<path d="M125.832 155.727L126.59 163.368L138.556 162.18C139.569 162.079 140.5 161.58 141.145 160.793C141.791 160.005 142.097 158.993 141.996 157.98C141.895 156.967 141.397 156.035 140.609 155.389C139.822 154.744 138.811 154.438 137.798 154.538L125.832 155.727Z" fill="#E6E6E6"/>
<path d="M115.426 154.842C115.443 157.447 116.489 159.94 118.336 161.778C120.182 163.615 122.68 164.648 125.285 164.651H127.252L128.684 152.708L116.824 148.437L115.426 154.842Z" fill="#588EF7"/>
<path d="M185.129 73.09L184.754 72.7148L185.32 72.1481L188.705 68.1963L189.107 68.5412L185.709 72.5078L185.129 73.09Z" fill="white"/>
<path d="M544 361.938H73V363H544V361.938Z" fill="#3F3D56"/>
<path d="M252.809 361.408H364.194V226.242C364.194 219.084 357.147 213.262 348.486 213.262H268.516C259.855 213.262 252.809 219.084 252.809 226.242V361.408Z" fill="#E6E6E6"/>
<path d="M261.293 355.819H355.705V241.249C355.705 235.182 349.732 230.247 342.391 230.247H274.607C267.266 230.247 261.293 235.182 261.293 241.249V355.819Z" fill="white"/>
<path d="M251.966 202.743C249.213 202.743 246.973 204.594 246.973 206.869V218.779C246.973 221.054 249.213 222.905 251.966 222.905H365.034C367.787 222.905 370.027 221.054 370.027 218.779V206.869C370.027 204.594 367.787 202.743 365.034 202.743H251.966Z" fill="#3F3D56"/>
<path d="M275.179 341.128C273.886 341.132 272.648 341.647 271.734 342.562C270.82 343.476 270.305 344.715 270.301 346.008C270.305 347.301 270.82 348.54 271.734 349.455C272.648 350.369 273.886 350.885 275.179 350.888H284.309V341.128H275.179Z" fill="#3F3D56"/>
<path d="M292.693 341.128H283.812V350.888H292.693C293.985 350.885 295.224 350.369 296.138 349.455C297.052 348.54 297.567 347.301 297.571 346.008C297.567 344.715 297.052 343.476 296.138 342.562C295.224 341.647 293.985 341.132 292.693 341.128Z" fill="#588EF7"/>
<path opacity="0.2" d="M295.876 342.323C296.645 343.206 297.069 344.337 297.071 345.508C297.067 346.801 296.552 348.04 295.638 348.954C294.724 349.869 293.485 350.384 292.193 350.388H283.812V350.889H292.693C293.985 350.885 295.224 350.369 296.138 349.455C297.052 348.541 297.567 347.301 297.571 346.008C297.57 345.308 297.418 344.617 297.125 343.981C296.833 343.345 296.407 342.779 295.876 342.323Z" fill="black"/>
<path d="M316.383 267.619C315.493 266.68 314.269 266.132 312.977 266.094C311.685 266.056 310.43 266.531 309.487 267.415C308.549 268.305 308.001 269.53 307.963 270.822C307.925 272.115 308.4 273.37 309.283 274.314L315.546 280.961L322.645 274.266L316.383 267.619Z" fill="#3F3D56"/>
<path d="M328.394 280.366L322.302 273.901L315.203 280.596L321.294 287.061C322.184 288 323.408 288.548 324.7 288.586C325.992 288.624 327.247 288.149 328.19 287.265C329.128 286.375 329.676 285.15 329.714 283.858C329.752 282.565 329.277 281.31 328.394 280.366Z" fill="#588EF7"/>
<path opacity="0.2" d="M329.708 283.503C329.593 284.669 329.062 285.753 328.211 286.557C327.268 287.442 326.013 287.917 324.721 287.878C323.429 287.84 322.205 287.292 321.315 286.354L315.567 280.253L315.203 280.596L321.294 287.061C322.184 288 323.408 288.548 324.7 288.586C325.992 288.624 327.247 288.149 328.19 287.265C328.698 286.784 329.097 286.199 329.359 285.55C329.621 284.901 329.74 284.203 329.708 283.503Z" fill="black"/>
<path d="M290.394 283.007C289.505 282.069 288.28 281.521 286.988 281.483C285.696 281.444 284.442 281.919 283.499 282.804C282.561 283.693 282.013 284.918 281.975 286.211C281.937 287.504 282.411 288.759 283.295 289.702L289.558 296.349L296.657 289.654L290.394 283.007Z" fill="#3F3D56"/>
<path d="M302.405 295.755L296.314 289.29L289.215 295.985L295.306 302.45C296.196 303.388 297.42 303.937 298.712 303.975C300.004 304.013 301.259 303.538 302.202 302.654C303.14 301.764 303.688 300.539 303.726 299.246C303.764 297.954 303.289 296.699 302.405 295.755Z" fill="#588EF7"/>
<path opacity="0.2" d="M303.719 298.892C303.605 300.057 303.073 301.142 302.223 301.946C301.279 302.83 300.025 303.305 298.733 303.267C297.441 303.229 296.216 302.681 295.327 301.742L289.579 295.642L289.215 295.985L295.306 302.45C296.196 303.388 297.42 303.936 298.712 303.975C300.004 304.013 301.259 303.538 302.202 302.654C302.71 302.173 303.109 301.588 303.371 300.938C303.633 300.289 303.751 299.591 303.719 298.892Z" fill="black"/>
<path d="M316.383 297.335C315.493 296.397 314.269 295.849 312.977 295.811C311.685 295.773 310.43 296.247 309.487 297.132C308.549 298.022 308.001 299.246 307.963 300.539C307.925 301.832 308.4 303.087 309.283 304.03L315.546 310.678L322.645 303.983L316.383 297.335Z" fill="#3F3D56"/>
<path d="M328.394 310.083L322.302 303.618L315.203 310.313L321.294 316.778C322.184 317.717 323.408 318.265 324.7 318.303C325.992 318.341 327.247 317.866 328.19 316.982C329.128 316.092 329.676 314.867 329.714 313.575C329.752 312.282 329.277 311.027 328.394 310.083Z" fill="#588EF7"/>
<path opacity="0.2" d="M329.708 313.22C329.593 314.385 329.062 315.47 328.211 316.274C327.268 317.158 326.013 317.633 324.721 317.595C323.429 317.557 322.205 317.009 321.315 316.07L315.567 309.97L315.203 310.313L321.294 316.778C322.184 317.716 323.408 318.265 324.7 318.303C325.992 318.341 327.247 317.866 328.19 316.982C328.698 316.501 329.097 315.916 329.359 315.267C329.621 314.617 329.74 313.919 329.708 313.22Z" fill="black"/>
<path d="M332.24 327.83C333.167 326.929 333.7 325.697 333.722 324.404C333.745 323.111 333.255 321.862 332.359 320.929C331.459 320.002 330.228 319.469 328.935 319.446C327.643 319.424 326.394 319.914 325.462 320.809L318.895 327.156L325.672 334.176L332.24 327.83Z" fill="#3F3D56"/>
<path d="M319.644 340.001L326.031 333.829L319.253 326.809L312.866 332.981C311.939 333.882 311.406 335.114 311.384 336.407C311.361 337.699 311.851 338.949 312.746 339.882C313.647 340.809 314.878 341.342 316.17 341.365C317.463 341.387 318.711 340.897 319.644 340.001Z" fill="#588EF7"/>
<path opacity="0.2" d="M316.524 341.354C315.358 341.254 314.268 340.735 313.454 339.894C312.558 338.961 312.069 337.712 312.091 336.419C312.113 335.126 312.646 333.894 313.573 332.993L319.601 327.169L319.253 326.809L312.866 332.981C311.939 333.882 311.406 335.114 311.384 336.407C311.361 337.699 311.851 338.949 312.746 339.882C313.233 340.384 313.823 340.776 314.475 341.03C315.127 341.284 315.826 341.395 316.524 341.354Z" fill="black"/>
<path d="M297.232 312.441C298.159 311.54 298.692 310.309 298.714 309.016C298.737 307.723 298.247 306.473 297.352 305.541C296.451 304.613 295.22 304.08 293.928 304.057C292.635 304.035 291.386 304.525 290.454 305.421L283.887 311.767L290.664 318.787L297.232 312.441Z" fill="#3F3D56"/>
<path d="M284.636 324.612L291.023 318.439L284.246 311.419L277.858 317.591C276.931 318.492 276.398 319.724 276.376 321.017C276.353 322.31 276.843 323.559 277.738 324.492C278.639 325.419 279.87 325.953 281.162 325.975C282.455 325.998 283.704 325.507 284.636 324.612Z" fill="#588EF7"/>
<path opacity="0.2" d="M281.516 325.964C280.35 325.864 279.26 325.346 278.446 324.504C277.551 323.571 277.061 322.322 277.083 321.029C277.106 319.736 277.639 318.505 278.566 317.604L284.593 311.779L284.246 311.419L277.858 317.591C276.931 318.492 276.398 319.724 276.376 321.017C276.353 322.31 276.843 323.559 277.738 324.492C278.225 324.995 278.815 325.386 279.467 325.64C280.119 325.895 280.818 326.005 281.516 325.964Z" fill="black"/>
<path d="M347.087 293.868C348.014 292.967 348.547 291.735 348.57 290.442C348.592 289.149 348.102 287.9 347.207 286.967C346.306 286.04 345.075 285.507 343.783 285.484C342.491 285.462 341.242 285.952 340.31 286.847L333.742 293.194L340.52 300.214L347.087 293.868Z" fill="#3F3D56"/>
<path d="M334.495 306.039L340.883 299.867L334.105 292.847L327.718 299.019C326.791 299.92 326.258 301.152 326.235 302.445C326.213 303.738 326.703 304.987 327.598 305.92C328.499 306.847 329.729 307.38 331.022 307.403C332.314 307.425 333.563 306.935 334.495 306.039Z" fill="#588EF7"/>
<path opacity="0.2" d="M331.376 307.392C330.21 307.292 329.119 306.773 328.305 305.932C327.41 304.999 326.92 303.75 326.943 302.457C326.965 301.164 327.498 299.932 328.425 299.031L334.453 293.207L334.105 292.847L327.718 299.019C326.791 299.92 326.258 301.152 326.235 302.445C326.213 303.738 326.703 304.987 327.598 305.92C328.085 306.422 328.674 306.814 329.326 307.068C329.978 307.322 330.677 307.433 331.376 307.392Z" fill="black"/>
<path d="M336.008 332.358C335.118 331.419 333.894 330.871 332.602 330.833C331.31 330.795 330.055 331.27 329.112 332.154C328.174 333.044 327.626 334.269 327.588 335.562C327.55 336.854 328.025 338.109 328.908 339.053L335.171 345.7L342.27 339.005L336.008 332.358Z" fill="#3F3D56"/>
<path d="M348.019 345.107L341.927 338.642L334.828 345.337L340.919 351.802C341.809 352.74 343.033 353.288 344.325 353.326C345.617 353.364 346.872 352.89 347.815 352.005C348.753 351.116 349.301 349.891 349.339 348.598C349.377 347.305 348.902 346.05 348.019 345.107Z" fill="#588EF7"/>
<path opacity="0.2" d="M349.333 348.244C349.218 349.409 348.687 350.494 347.836 351.298C346.893 352.182 345.638 352.657 344.346 352.619C343.054 352.58 341.83 352.032 340.94 351.094L335.192 344.993L334.828 345.336L340.919 351.801C341.809 352.74 343.033 353.288 344.325 353.326C345.617 353.364 346.872 352.889 347.815 352.005C348.323 351.524 348.722 350.939 348.984 350.29C349.246 349.641 349.365 348.943 349.333 348.244Z" fill="black"/>
<path d="M301.531 331.828C300.642 330.889 299.417 330.341 298.125 330.303C296.833 330.265 295.579 330.74 294.635 331.624C293.698 332.514 293.15 333.739 293.112 335.031C293.073 336.324 293.548 337.579 294.432 338.523L300.695 345.17L307.794 338.475L301.531 331.828Z" fill="#3F3D56"/>
<path d="M313.542 344.575L307.451 338.11L300.352 344.805L306.443 351.27C307.332 352.209 308.557 352.757 309.849 352.795C311.141 352.833 312.395 352.358 313.338 351.474C314.276 350.584 314.824 349.359 314.862 348.067C314.901 346.774 314.426 345.519 313.542 344.575Z" fill="#588EF7"/>
<path opacity="0.2" d="M314.856 347.712C314.742 348.878 314.21 349.962 313.359 350.766C312.416 351.651 311.162 352.125 309.87 352.087C308.578 352.049 307.353 351.501 306.464 350.563L300.716 344.462L300.352 344.805L306.443 351.27C307.332 352.209 308.557 352.757 309.849 352.795C311.141 352.833 312.395 352.358 313.338 351.474C313.847 350.993 314.245 350.408 314.507 349.759C314.769 349.11 314.888 348.412 314.856 347.712Z" fill="black"/>
<path d="M311.238 314.319C311.238 315.942 310.678 317.515 309.652 318.772C308.627 320.028 307.199 320.892 305.61 321.217C304.681 321.404 303.724 321.404 302.796 321.217C301.207 320.892 299.779 320.028 298.754 318.771C297.728 317.514 297.168 315.942 297.168 314.319C297.168 312.697 297.728 311.124 298.754 309.867C299.779 308.611 301.207 307.747 302.796 307.422C303.724 307.234 304.681 307.234 305.61 307.422C307.199 307.747 308.627 308.61 309.652 309.867C310.678 311.124 311.238 312.697 311.238 314.319Z" fill="#588EF7"/>
<path opacity="0.2" d="M305.607 307.422V321.217C304.678 321.404 303.722 321.404 302.793 321.217V307.422C303.722 307.234 304.678 307.234 305.607 307.422Z" fill="black"/>
<path d="M314.417 286.195C314.418 287.818 313.858 289.391 312.832 290.648C311.807 291.904 310.378 292.768 308.789 293.093C307.861 293.28 306.904 293.28 305.976 293.093C304.387 292.768 302.959 291.904 301.933 290.647C300.908 289.39 300.348 287.818 300.348 286.195C300.348 284.573 300.908 283 301.933 281.743C302.959 280.487 304.387 279.623 305.976 279.298C306.904 279.11 307.861 279.11 308.789 279.298C310.378 279.622 311.807 280.486 312.832 281.743C313.858 283 314.418 284.573 314.417 286.195Z" fill="#588EF7"/>
<path opacity="0.2" d="M308.79 279.298V293.093C307.862 293.28 306.905 293.28 305.977 293.093V279.298C306.905 279.11 307.862 279.11 308.79 279.298Z" fill="black"/>
<path d="M314.417 326.524C314.418 328.147 313.858 329.72 312.832 330.977C311.807 332.234 310.378 333.097 308.789 333.422C307.861 333.61 306.904 333.61 305.976 333.422C304.387 333.097 302.959 332.233 301.933 330.976C300.908 329.719 300.348 328.147 300.348 326.524C300.348 324.902 300.908 323.329 301.933 322.073C302.959 320.816 304.387 319.952 305.976 319.627C306.904 319.439 307.861 319.439 308.789 319.627C310.378 319.952 311.807 320.815 312.832 322.072C313.858 323.329 314.418 324.902 314.417 326.524Z" fill="#588EF7"/>
<path opacity="0.2" d="M308.79 319.627V333.422C307.862 333.61 306.905 333.61 305.977 333.422V319.627C306.905 319.439 307.862 319.439 308.79 319.627Z" fill="black"/>
<path d="M331.921 346.158C331.922 347.781 331.362 349.354 330.336 350.61C329.31 351.867 327.882 352.731 326.293 353.056C325.365 353.243 324.408 353.243 323.479 353.056C321.891 352.731 320.463 351.867 319.437 350.61C318.412 349.353 317.852 347.781 317.852 346.158C317.852 344.536 318.412 342.963 319.437 341.706C320.463 340.45 321.891 339.586 323.479 339.261C324.408 339.073 325.365 339.073 326.293 339.261C327.882 339.585 329.31 340.449 330.336 341.706C331.362 342.963 331.922 344.536 331.921 346.158Z" fill="#588EF7"/>
<path opacity="0.2" d="M326.294 339.261V353.056C325.366 353.243 324.409 353.243 323.48 353.056V339.261C324.409 339.073 325.366 339.073 326.294 339.261Z" fill="black"/>
<path d="M347.382 310.034C348.55 311.16 349.293 312.655 349.486 314.266C349.679 315.877 349.31 317.505 348.44 318.875C347.931 319.674 347.267 320.363 346.488 320.902C345.151 321.821 343.539 322.25 341.922 322.116C340.306 321.983 338.786 321.295 337.618 320.169C336.451 319.043 335.708 317.548 335.515 315.937C335.322 314.327 335.691 312.698 336.56 311.329C337.069 310.529 337.733 309.84 338.513 309.302C339.849 308.382 341.462 307.953 343.078 308.086C344.694 308.22 346.215 308.908 347.382 310.034Z" fill="#588EF7"/>
<path opacity="0.2" d="M338.515 309.302L348.443 318.875C347.934 319.674 347.27 320.363 346.49 320.902L336.562 311.329C337.072 310.53 337.736 309.84 338.515 309.302Z" fill="black"/>
<path d="M349.507 325.423C350.675 326.549 351.418 328.043 351.611 329.654C351.804 331.265 351.435 332.894 350.565 334.263C350.056 335.063 349.392 335.752 348.613 336.29C347.276 337.21 345.664 337.639 344.047 337.505C342.431 337.372 340.911 336.684 339.743 335.558C338.576 334.432 337.833 332.937 337.64 331.326C337.447 329.715 337.816 328.087 338.685 326.717C339.194 325.918 339.858 325.229 340.638 324.69C341.974 323.771 343.587 323.342 345.203 323.475C346.819 323.609 348.34 324.297 349.507 325.423Z" fill="#588EF7"/>
<path opacity="0.2" d="M340.636 324.69L350.564 334.264C350.055 335.063 349.391 335.752 348.611 336.291L338.684 326.717C339.193 325.918 339.857 325.229 340.636 324.69Z" fill="black"/>
<path d="M286.386 329.138C287.554 330.263 288.297 331.758 288.49 333.369C288.683 334.98 288.314 336.608 287.444 337.978C286.935 338.777 286.271 339.467 285.492 340.005C284.155 340.924 282.543 341.353 280.926 341.22C279.31 341.086 277.79 340.399 276.622 339.273C275.455 338.147 274.712 336.652 274.519 335.041C274.326 333.43 274.695 331.802 275.564 330.432C276.073 329.633 276.737 328.944 277.517 328.405C278.853 327.486 280.466 327.056 282.082 327.19C283.698 327.323 285.219 328.012 286.386 329.138Z" fill="#588EF7"/>
<path opacity="0.2" d="M277.519 328.405L287.447 337.978C286.937 338.778 286.274 339.467 285.494 340.005L275.566 330.432C276.076 329.633 276.74 328.944 277.519 328.405Z" fill="black"/>
<path opacity="0.2" d="M263.679 202.743H261.027V222.377H263.679V202.743Z" fill="black"/>
<path opacity="0.2" d="M279.062 202.743H276.41V222.377H279.062V202.743Z" fill="black"/>
<path opacity="0.2" d="M294.445 202.743H291.793V222.377H294.445V202.743Z" fill="black"/>
<path opacity="0.2" d="M309.828 202.743H307.176V222.377H309.828V202.743Z" fill="black"/>
<path opacity="0.2" d="M325.207 202.743H322.555V222.377H325.207V202.743Z" fill="black"/>
<path opacity="0.2" d="M340.59 202.743H337.938V222.377H340.59V202.743Z" fill="black"/>
<path opacity="0.2" d="M355.972 202.743H353.32V222.377H355.972V202.743Z" fill="black"/>
</g>
<defs>
<clipPath id="clip0_481_203">
<rect width="471" height="328" fill="white" transform="translate(73 35)"/>
</clipPath>
</defs>
</svg>
