<svg width="40" height="49" viewBox="0 0 40 49" fill="none" xmlns="http://www.w3.org/2000/svg">
<g clip-path="url(#clip0_369_322)">
<path d="M13.2057 0.850983C10.4404 0.850983 7.93125 1.13519 6.19088 1.56788C5.31536 1.78422 4.63203 2.04616 4.24766 2.27311C4.10885 2.35582 4.06615 2.39824 4.02344 2.44172C4.06615 2.4852 4.10885 2.52762 4.24766 2.61034C4.63203 2.83729 5.31536 3.09923 6.19088 3.31557C7.93125 3.74825 10.4404 4.03246 13.2057 4.03246C15.9711 4.03246 18.4802 3.74825 20.2206 3.31557C21.0961 3.09923 21.7794 2.83729 22.1638 2.61034C22.3026 2.52762 22.3453 2.4852 22.388 2.44172C22.3453 2.39824 22.3026 2.35582 22.1638 2.27311C21.7794 2.04616 21.0961 1.78422 20.2206 1.56788C18.4802 1.13519 15.9711 0.850983 13.2057 0.850983ZM3.91667 4.5765V8.8259C4.61068 9.17586 5.51823 9.52582 6.19088 9.6955C7.93125 10.1303 10.4404 10.4166 13.2057 10.4166C15.9711 10.4166 18.4802 10.1303 20.2206 9.6955C21.5018 9.38796 21.6513 9.35614 22.4948 8.8259V4.5765C21.9716 4.80556 21.3737 4.99751 20.6904 5.16719C18.7151 5.65608 16.0992 5.94135 13.2057 5.94135C10.3122 5.94135 7.69635 5.65608 5.72109 5.16719C5.03776 4.99751 4.43984 4.80556 3.91667 4.5765ZM4.8349 11.3075C3.9487 11.615 3.07318 12.1665 2.35781 12.877C1.22391 13.9905 0.5 15.4858 0.5 16.8644V23.6516C0.5 24.1819 0.734896 24.6379 1.33922 25.1575C1.94141 25.6665 2.91302 26.165 4.10885 26.568C6.52188 27.3633 9.8638 27.7875 13.2057 27.7875C16.537 27.7875 19.8896 27.3633 22.3026 26.568C23.4984 26.165 24.4701 25.6665 25.068 25.1575C25.6766 24.6379 25.9115 24.1819 25.9115 23.6516V16.8644C25.9115 15.4858 25.1854 13.9905 24.0536 12.877C23.3383 12.1665 22.4734 11.615 21.5766 11.3075C21.299 11.3923 21 11.4771 20.6904 11.5514C18.7151 12.0392 16.0992 12.3255 13.2057 12.3255C10.3122 12.3255 7.69635 12.0392 5.72109 11.5514C5.41146 11.4771 5.1125 11.3923 4.8349 11.3075ZM0.5 26.9285V33.8323C0.5 34.3626 0.734896 34.8186 1.33922 35.3382C1.94141 35.8473 2.91302 36.3457 4.10885 36.7487C6.52188 37.5441 9.8638 37.9683 13.2057 37.9683C16.537 37.9683 19.8896 37.5441 22.3026 36.7487C23.4984 36.3457 24.4701 35.8473 25.068 35.3382C25.6766 34.8186 25.9115 34.3626 25.9115 33.8323V26.9285C25.0786 27.5224 24.0643 27.989 22.9005 28.3708C20.1885 29.2722 16.6971 29.6964 13.2057 29.6964C9.70365 29.6964 6.22292 29.2722 3.51094 28.3708C2.34714 27.989 1.32747 27.5224 0.5 26.9285ZM0.5 37.1093V44.0131C0.5 44.5433 0.734896 44.9994 1.33922 45.519C1.94141 46.028 2.91302 46.5265 4.10885 46.9294C6.52188 47.7248 9.8638 48.149 13.2057 48.149C15.0742 48.149 16.9641 48.0112 18.6724 47.7566C18.3307 47.2794 18.1172 46.7386 18.1172 46.1235C18.1172 44.8721 19.0034 43.8858 20.1138 43.2707C20.7865 42.889 21.5872 42.6238 22.4628 42.4648C22.6977 41.5209 23.4664 40.768 24.374 40.2589C24.8331 40.0044 25.3562 39.7923 25.9115 39.6333V37.1093C25.0786 37.7031 24.0643 38.1698 22.9005 38.5515C20.1885 39.453 16.6971 39.8772 13.2057 39.8772C9.70365 39.8772 6.22292 39.453 3.51094 38.5515C2.34714 38.1698 1.32747 37.7031 0.5 37.1093ZM28.4633 41.2134C27.1927 41.2134 26.0503 41.5103 25.3135 41.9239C25.068 42.0618 24.8865 42.1996 24.737 42.3269C26.0823 42.4011 27.3208 42.7299 28.2924 43.2707C28.9544 43.6419 29.5417 44.1403 29.894 44.7448C30.2143 43.9495 30.8977 43.3026 31.7091 42.8572C31.9227 42.7405 32.1469 42.6344 32.3818 42.5284C32.2216 42.3375 31.976 42.1254 31.613 41.9239C30.8763 41.5103 29.7339 41.2134 28.4633 41.2134ZM35.7984 43.8116C34.5279 43.8116 33.3854 44.1085 32.6487 44.5221C31.9013 44.9357 31.6344 45.3811 31.6344 45.7099C31.6344 46.0386 31.9013 46.484 32.6487 46.8976C33.3854 47.3112 34.5279 47.6082 35.7984 47.6082C37.069 47.6082 38.2115 47.3112 38.9482 46.8976C39.6956 46.484 39.9625 46.0386 39.9625 45.7099C39.9625 45.3811 39.6956 44.9357 38.9482 44.5221C38.2115 44.1085 37.069 43.8116 35.7984 43.8116ZM24.2031 44.2252C22.9326 44.2252 21.7901 44.5221 21.0534 44.9357C20.306 45.3493 20.0391 45.7947 20.0391 46.1235C20.0391 46.4522 20.306 46.8976 21.0534 47.3112C21.7901 47.7248 22.9326 48.0218 24.2031 48.0218C25.4737 48.0218 26.6161 47.7248 27.3529 47.3112C28.1003 46.8976 28.3672 46.4522 28.3672 46.1235C28.3672 45.7947 28.1003 45.3493 27.3529 44.9357C26.6161 44.5221 25.4737 44.2252 24.2031 44.2252Z" fill="#588EF7"/>
</g>
<defs>
<clipPath id="clip0_369_322">
<rect width="40" height="49" fill="white"/>
</clipPath>
</defs>
</svg>
