<svg width="618" height="399" viewBox="0 0 618 399" fill="none" xmlns="http://www.w3.org/2000/svg">
<rect width="618" height="399" rx="10" fill="#F4F5F8"/>
<path d="M171.208 105.471C171.023 104.008 170.649 102.575 170.096 101.208C170.025 100.95 169.902 100.709 169.733 100.501C169.565 100.293 169.355 100.122 169.117 100C168.798 99.9173 168.465 99.9136 168.145 99.9893L163.155 100.754C162.737 100.773 162.338 100.929 162.017 101.197C161.367 101.882 162.007 102.984 161.987 103.928C161.964 104.99 161.022 105.852 160.001 106.137C158.958 106.348 157.882 106.335 156.845 106.098L149.868 105.012C151.923 104.355 153.752 103.133 155.146 101.484C156.065 100.395 156.553 98.3611 155.226 97.8452C154.832 97.7368 154.421 97.7038 154.014 97.7477C150.853 97.7724 148.366 95.1289 145.406 94.0155C143.512 93.349 141.457 93.2994 139.533 93.8738C137.609 94.4483 135.916 95.6173 134.695 97.2137L138.412 97.3932C138.761 97.3739 139.108 97.4665 139.402 97.6577C140.216 98.328 139.204 99.6155 139.318 100.665C139.468 102.029 141.275 102.32 142.638 102.458C144.001 102.596 145.729 103.705 145.074 104.909C138.225 107.272 131.255 100.29 124.062 101.15C122.242 101.367 120.522 102.083 118.745 102.534C107.887 105.285 96.6622 97.944 85.5704 99.4988C83.1046 99.9199 80.6811 100.56 78.3286 101.412C76.819 101.908 75.2444 102.445 74.1475 103.596C73.0506 104.748 72.6332 106.717 73.6723 107.921C70.8082 108.157 67.925 107.882 65.1566 107.11C65.9053 107.527 66.528 108.138 66.9596 108.879C67.3912 109.62 67.6156 110.463 67.6094 111.321C63.1375 112.052 58.784 113.381 54.666 115.274C55.4345 116.554 56.3322 117.752 57.345 118.849L51.6836 122.492C53.5963 122.974 54.5852 125.586 53.4729 127.218C55.4561 126.334 56.6852 124.048 58.806 123.585C60.1953 123.281 61.609 123.85 62.927 124.385C64.2451 124.92 65.6937 125.439 67.0581 125.037C68.4226 124.636 69.429 122.864 68.562 121.735C74.3939 120.03 80.4211 119.087 86.4941 118.929C86.9626 118.87 87.4378 118.96 87.8522 119.187C88.6428 119.736 88.4348 120.923 88.3922 121.885C88.3496 122.848 89.0988 124.114 89.9579 123.68C88.9471 124.558 89.8112 126.21 90.7809 127.133C91.7506 128.056 92.9194 129.33 92.3257 130.531C92.1708 130.844 91.908 131.095 91.7589 131.411C91.3188 132.345 92.0175 133.433 92.8417 134.053C93.6658 134.673 94.6753 135.106 95.2477 135.965C95.8202 136.823 95.5603 138.326 94.5366 138.446L91.6269 134.745C90.6328 135.778 89.9513 137.071 89.6614 138.476C92.7468 141.002 93.2109 146.145 90.6278 149.184C89.3078 150.737 87.4306 151.681 85.7922 152.893C84.1538 154.104 82.6377 155.83 82.6419 157.869C82.649 161.394 82.3615 164.668 83.68 167.935C86.1112 173.959 88.9181 179.825 92.0842 185.497C92.9156 186.986 93.9901 188.619 95.6744 188.875C93.5458 183.685 91.6296 178.414 89.9259 173.062C91.0356 173.066 92.3179 173.155 92.9684 174.055C93.5071 174.801 93.3914 175.814 93.5588 176.719C93.7717 177.596 94.1267 178.432 94.6096 179.194L104.774 197.329C105.617 198.833 106.583 200.446 108.194 201.055C109.224 201.444 110.415 201.371 111.362 201.931C112.105 202.371 112.606 203.15 113.363 203.564C115.504 204.734 118.482 202.49 120.483 203.887C121.055 204.287 121.419 204.921 121.946 205.378C123.794 206.981 126.826 205.909 128.959 207.105C130.334 207.876 131.047 209.417 131.78 210.814C133.618 214.313 136.59 217.74 140.527 218.019C141.764 218.106 143.027 217.872 144.236 218.147C145.445 218.423 146.635 219.479 146.441 220.706C146.108 222.808 147.145 225.111 146.867 227.221C146.359 231.066 140.915 232.755 140.447 236.604C140.345 237.447 140.505 238.317 140.305 239.142C140.059 240.153 139.301 240.976 139.032 241.981C138.521 243.886 139.884 245.781 141.38 247.063C142.877 248.344 144.662 249.449 145.48 251.243C146.345 253.138 145.92 255.349 146.201 257.414C146.815 261.923 150.703 265.265 154.705 267.42C155.924 268.077 157.233 268.713 158.022 269.852C159.052 271.339 158.949 273.299 159.293 275.075C160.135 279.426 163.792 283.011 163.896 287.441C163.97 290.59 162.222 293.447 161.178 296.418C160.199 299.265 159.845 302.29 160.14 305.286C160.434 308.283 161.371 311.18 162.885 313.781C163.666 315.102 164.6 316.347 165.152 317.779C166.138 320.334 165.818 323.239 166.727 325.823C167.929 329.239 171.231 332.06 170.915 335.668C172.414 338.786 175.725 340.318 179.054 341.246L185.02 342.91C186.162 343.228 187.356 343.549 188.519 343.319C189.683 343.088 190.793 342.121 190.763 340.933C187.837 340.272 184.818 339.57 182.406 337.784C179.994 335.998 178.342 332.818 179.257 329.958C179.681 328.631 180.584 327.099 179.726 326.003C179.234 325.376 178.336 325.212 177.782 324.639C176.917 323.746 177.214 322.245 177.836 321.169C178.457 320.092 179.355 319.129 179.606 317.911C179.733 317.229 179.648 316.525 179.364 315.893C179.079 315.261 178.609 314.731 178.015 314.374C179.122 313.956 180.128 313.309 180.968 312.477C181.745 311.588 182.104 310.219 181.493 309.209C183.307 309.44 185.449 309.552 186.64 308.162C187.59 307.052 187.525 305.393 187.149 303.98C186.774 302.566 186.139 301.194 186.119 299.731C190.304 299.93 194.498 299.787 198.659 299.305C198.058 297.275 196.69 295.56 194.847 294.523C196.732 294.203 198.449 291.943 199.044 290.123C199.64 288.304 199.488 286.322 199.12 284.443C198.978 283.959 198.959 283.448 199.063 282.955C199.276 282.278 199.94 281.864 200.555 281.511L209.911 276.129C210.469 275.849 210.975 275.474 211.407 275.023C212.387 273.869 212.242 272.128 211.74 270.7C211.238 269.271 210.434 267.928 210.241 266.426C209.663 261.933 214.464 258.71 216.084 254.481C216.72 252.821 216.85 251.018 216.973 249.244C217.105 247.34 217.115 245.127 215.655 243.9C214.255 242.724 212.068 242.986 210.604 241.892C209.261 240.888 208.798 238.94 207.331 238.129C205.999 237.393 204.329 237.861 202.847 237.515C200.239 236.906 198.597 233.894 195.933 233.616C194.43 233.458 192.729 234.194 191.497 233.318C190.411 232.545 190.368 230.992 190.161 229.674C189.799 227.627 188.819 225.739 187.353 224.266C185.887 222.793 184.006 221.806 181.962 221.436C180.413 221.187 178.726 221.282 177.407 220.429C176.072 219.565 175.46 217.948 174.411 216.752C172.721 214.824 170.059 214.139 167.566 213.551L157.423 211.163C155.622 210.739 153.301 210.514 152.335 212.094C152.049 212.696 151.847 213.334 151.733 213.99C151.371 215.178 150.643 216.22 149.652 216.966C148.662 217.713 147.46 218.126 146.221 218.146C145.371 216.694 143.994 215.626 142.377 215.167C141.348 214.88 140.247 214.848 139.266 214.425C138.732 214.164 138.257 213.796 137.869 213.345C137.482 212.893 137.19 212.367 137.013 211.799C136.835 211.231 136.776 210.632 136.837 210.04C136.899 209.448 137.08 208.874 137.371 208.355C137.955 207.312 138.181 206.105 138.013 204.921C137.845 203.737 137.293 202.641 136.441 201.803C134.716 200.252 132.221 199.877 129.908 200.032C129.303 198.708 130.315 197.215 131.407 196.252C132.498 195.29 133.824 194.345 134.061 192.908C134.435 190.648 131.556 188.932 129.37 189.605C127.185 190.279 125.789 192.406 124.867 194.502C124.338 195.705 123.888 196.971 123.053 197.985C122.219 199 120.875 199.726 119.603 199.4C117.803 198.939 117.108 196.798 116.71 194.98C116.175 192.542 115.638 190.07 115.75 187.576C115.862 185.082 116.701 182.521 118.537 180.833C121.529 178.081 126.119 178.351 130.157 178.79C129.203 177.713 129.439 175.899 130.46 174.886C130.999 174.406 131.646 174.065 132.346 173.893C133.046 173.721 133.777 173.722 134.477 173.897C135.693 174.151 136.79 174.807 137.589 175.761C138.736 177.162 139.062 179.054 139.93 180.644C140.797 182.235 142.747 183.592 144.343 182.738C145.722 182.001 145.941 180.086 145.598 178.559C145.255 177.032 144.526 175.547 144.65 173.987C144.887 171.009 147.969 169.217 150.688 167.991C153.407 166.765 156.521 165.116 156.952 162.16C156.966 161.581 157.075 161.009 157.274 160.466C157.576 159.986 157.995 159.591 158.492 159.319C166.428 154.066 174.496 148.749 183.566 145.878C184.038 145.729 184.094 145.895 184.575 145.778C185.248 145.388 184.802 144.31 184.156 143.876C183.511 143.442 182.648 143.109 182.485 142.348C182.364 141.788 182.694 141.239 182.779 140.673C182.989 139.282 181.328 137.998 180.038 138.554C179.31 137.588 180.751 136.465 181.917 136.143C185.418 135.178 189.011 134.59 192.636 134.389C193.055 134.323 193.483 134.396 193.856 134.597C194.465 135.02 194.387 135.988 193.955 136.591C193.524 137.194 192.853 137.573 192.315 138.083C191.728 138.656 191.308 139.38 191.104 140.176C190.899 140.971 190.916 141.808 191.154 142.594C193.046 143.558 195.104 144.551 197.2 144.211C199.296 143.872 201.156 141.513 200.171 139.629C199.253 137.875 196.497 137.479 196.024 135.556C195.469 133.305 198.65 131.303 197.934 129.098C197.62 128.132 196.659 127.564 195.921 126.867C195.05 126.012 194.458 124.913 194.222 123.715C193.986 122.516 194.117 121.275 194.598 120.153C193.397 120.364 192.163 120.284 190.999 119.92C189.835 119.555 188.776 118.916 187.91 118.056C186.31 116.439 185.033 113.888 182.761 113.96C180.676 114.026 178.881 116.463 176.931 115.719C176.452 115.537 175.946 115.164 175.481 115.382C175.329 115.481 175.201 115.614 175.108 115.77C175.014 115.925 174.957 116.101 174.941 116.282C174.445 118.654 175.297 121.357 174.006 123.407C172.602 125.638 169.352 125.947 167.649 127.959C166.725 129.051 166.367 130.522 165.517 131.673C164.667 132.825 162.864 133.557 161.844 132.553C162.345 131.521 162.482 130.35 162.232 129.23C161.983 128.11 161.361 127.108 160.469 126.388C159.522 125.769 158.502 125.272 157.431 124.908C156.235 124.4 155.097 123.765 154.038 123.013C153.507 122.692 153.075 122.23 152.792 121.678C152.567 120.987 152.598 120.238 152.877 119.567C153.394 118.082 154.306 116.767 155.515 115.763C156.724 114.759 158.183 114.106 159.736 113.872C161.094 113.687 162.674 113.752 163.573 112.716C164.048 112.168 164.298 111.339 164.988 111.116C165.429 111.028 165.887 111.084 166.294 111.278L171.362 113.064C171.927 113.32 172.55 113.423 173.167 113.363C173.473 113.322 173.753 113.166 173.949 112.927C174.145 112.688 174.244 112.384 174.225 112.075C174.064 111.232 172.769 110.827 172.886 109.977C172.952 109.702 173.1 109.453 173.311 109.263C175.139 107.313 177.376 105.793 179.86 104.81C182.345 103.828 185.015 103.407 187.681 103.579C188.32 104.632 187.309 105.878 186.467 106.776C185.625 107.674 184.949 109.279 185.967 109.97C186.384 110.184 186.848 110.288 187.316 110.275C188.564 110.444 189.776 110.812 190.908 111.366C192.659 112.129 194.376 112.964 196.06 113.871C195.912 112.759 195.77 111.588 196.19 110.548C196.611 109.508 197.807 108.692 198.852 109.097C199.859 109.488 200.375 110.823 201.448 110.945C202.879 111.108 203.443 108.991 202.846 107.679C202.248 106.366 201.065 105.268 200.966 103.829C200.899 102.858 201.268 101.654 200.494 101.066C200.219 100.889 199.906 100.779 199.581 100.745L180.248 97.1816C179.1 96.97 177.441 97.1322 177.39 98.3003C177.362 98.9523 177.943 99.5973 177.686 100.197C177.411 100.837 176.508 100.778 175.85 101.004C174.83 101.355 174.318 102.569 174.416 103.645C174.595 104.715 175.009 105.731 175.627 106.622C174.369 106.095 172.465 105.998 171.208 105.471Z" fill="#3F3D56"/>
<path d="M155.781 89.0343C154.562 88.6302 153.249 88.6114 152.019 88.9804C150.788 89.3494 149.701 90.0883 148.905 91.0971C148.586 91.5169 148.319 92.0956 148.586 92.5501C148.968 93.2018 149.941 92.9444 150.659 92.7113C151.714 92.3338 152.862 92.3064 153.934 92.633C154.608 92.8648 155.211 93.2744 155.888 93.4974C156.217 93.6355 156.578 93.6811 156.931 93.6293C157.285 93.5776 157.617 93.4305 157.894 93.2038C158.358 92.7292 158.387 91.9915 158.388 91.3268C158.42 91.1045 158.403 90.8777 158.336 90.663C158.27 90.4484 158.156 90.2513 158.004 90.0862C157.733 89.929 157.429 89.8388 157.116 89.8231C156.416 89.6932 155.782 89.3227 155.326 88.7753" fill="#3F3D56"/>
<path d="M162.753 87.0903C162.481 87.0754 162.208 87.131 161.963 87.2519C161.718 87.3728 161.508 87.5548 161.354 87.7804C161.199 88.0061 161.105 88.2677 161.081 88.5403C161.056 88.8129 161.102 89.0871 161.214 89.3367C162.052 89.5656 162.927 89.6228 163.788 89.5048C164.217 89.4381 164.617 89.2456 164.937 88.9516C165.257 88.6577 165.483 88.2754 165.587 87.8529C164.574 88.0376 163.528 87.8376 162.654 87.292" fill="#3F3D56"/>
<path d="M186.139 83.8433C183.858 84.3289 181.643 85.0826 179.539 86.0888C180.531 86.4706 181.374 87.1615 181.944 88.0596C182.514 88.9576 182.781 90.0154 182.706 91.077C182.617 91.4846 182.627 91.9076 182.736 92.3103C182.978 92.8989 183.681 93.1197 184.298 93.2708C185.408 93.6089 186.566 93.757 187.725 93.7088C188.304 93.6784 188.867 93.5038 189.362 93.2007C189.857 92.8976 190.269 92.4756 190.561 91.9729C190.729 91.4958 190.926 91.0294 191.151 90.5765C192.631 88.3187 197.028 91.0487 198.617 88.8665C199.176 88.0979 199.125 86.9408 199.855 86.3317C200.232 86.0663 200.67 85.8991 201.128 85.8451C204.324 85.2092 207.552 84.7487 210.797 84.4657C212.335 84.3317 214.34 83.7786 214.353 82.2324C208.56 81.0929 202.553 81.9022 197.267 84.5346C195.363 85.49 192.844 87.4999 191.009 86.2332C190.322 85.7589 190.356 84.4818 189.411 83.9484C188.444 83.4032 187.165 83.6249 186.139 83.8433Z" fill="#3F3D56"/>
<path d="M205.085 87.3917L207.805 87.9151C207.304 87.8929 206.805 87.9778 206.339 88.1643C205.874 88.3508 205.454 88.6345 205.107 88.9964C204.76 89.3584 204.494 89.7903 204.327 90.2634C204.16 90.7365 204.095 91.2399 204.138 91.7399C206.684 92.5919 209.46 91.7628 212.143 91.8761C214.825 91.9893 217.946 93.9085 217.488 96.5582C217.35 97.3594 216.888 98.16 217.128 98.9367C217.297 99.481 217.776 99.8673 218.046 100.369C218.61 101.413 218.16 102.735 217.448 103.684C216.736 104.634 215.779 105.392 215.154 106.401C213.6 108.911 214.483 112.156 215.409 114.961C215.676 116.02 216.171 117.009 216.857 117.858C218.229 119.319 220.464 119.446 222.466 119.475C223.923 119.497 225.592 119.425 226.513 118.294C227.716 116.818 226.875 114.515 227.667 112.782C228.386 111.209 230.219 110.534 231.879 110.055C234.921 109.178 238.02 108.433 240.896 107.108C244.466 105.463 247.803 102.899 251.728 102.688C252.829 102.628 253.957 102.758 255.018 102.456C256.079 102.154 257.086 101.236 257.006 100.134C256.937 99.193 256.142 98.502 255.521 97.7925C254.9 97.083 254.412 95.9921 254.983 95.2415L265.27 93.317C264.541 91.3266 263.973 88.7052 265.648 87.4096C266.253 86.9422 267.062 86.7554 267.577 86.1902C268.454 85.2271 268.013 83.5679 267 82.7488C265.988 81.9296 264.618 81.7395 263.321 81.6316C258.81 81.2564 254.274 81.5043 249.755 81.7524C240.92 82.2374 232.086 82.7224 223.252 83.2075C221.474 83.3051 219.42 83.1559 217.789 83.7636C216.408 84.2781 215.427 85.2225 213.847 85.5543C210.932 86.1668 207.724 85.7523 205.085 87.3917Z" fill="#3F3D56"/>
<path d="M253.801 108.919C253.524 108.876 253.241 108.94 253.01 109.099C252.857 109.268 252.766 109.483 252.752 109.711C252.576 110.713 252.786 111.745 253.337 112.6C253.619 113.019 254.007 113.356 254.461 113.574C254.916 113.793 255.421 113.885 255.923 113.842C257.148 113.686 258.05 112.639 259.176 112.129C260.911 111.343 268.279 110.117 263.182 107.359C261.426 106.409 260.291 107.248 258.906 107.874C257.331 108.681 255.566 109.042 253.801 108.919Z" fill="#3F3D56"/>
<path d="M298.442 85.8343C297.847 86.0778 297.349 86.5119 297.026 87.0687C296.877 87.3515 296.843 87.6807 296.93 87.9882C297.017 88.2957 297.218 88.5581 297.493 88.721C297.715 88.8017 297.951 88.8392 298.187 88.8313L300.607 88.9037C301.635 88.9345 302.919 89.1538 303.195 90.146C303.4 90.8828 302.941 91.8296 303.495 92.3561C303.733 92.5405 304.019 92.6521 304.318 92.6777C305.115 92.8828 305.948 92.9097 306.756 92.7565C308.517 92.2835 307.592 91.2071 308.147 90.2487C308.995 88.7823 308.848 89.67 310.343 88.8296C311.447 88.2089 312.874 87.083 311.952 85.5011C310.35 82.7502 300.807 84.6525 298.442 85.8343Z" fill="#3F3D56"/>
<path d="M346.203 84.4513L344.798 84.6391C341.629 85.0626 338.442 85.49 335.391 86.4431C336.712 86.9662 338.098 87.3069 339.51 87.4556C340.288 87.4938 341.061 87.6038 341.818 87.7842C343.166 88.1861 344.524 89.224 345.827 88.6923C346.634 88.3627 346.898 87.5206 347.566 87.0743C348.028 86.7661 349.78 86.2674 349.976 85.9563C351.559 83.4418 347.42 84.2886 346.203 84.4513Z" fill="#3F3D56"/>
<path d="M352.374 90.8483C350.497 91.8995 348.756 93.1768 347.189 94.6519C346.528 95.2735 345.854 96.0466 345.914 96.9522C345.993 98.1558 347.274 98.8539 348.383 99.3242L352.874 101.229C353.419 100.46 352.921 99.3979 352.357 98.6419C351.794 97.8859 351.125 97.0112 351.374 96.1015C351.658 95.0633 352.922 94.7096 353.981 94.5307C355.708 94.2393 360.366 94.2627 359.806 91.4755C359.147 88.1914 354.107 89.8779 352.374 90.8483Z" fill="#3F3D56"/>
<path d="M351.47 276.7C351.043 277.94 351.002 279.401 351.742 280.483C352.572 281.698 354.233 282.151 355.67 281.843C357.101 281.461 358.377 280.64 359.318 279.494C360.178 278.534 360.885 277.447 361.415 276.272C362.155 274.44 362.677 272.527 362.97 270.573L364.365 263.239C364.677 261.599 364.665 256.574 361.657 258.211C360.835 258.659 358.932 262.19 358.071 263.192C356.519 264.997 356.314 266.748 355.497 268.935C354.473 271.674 352.416 273.956 351.47 276.7Z" fill="#3F3D56"/>
<path d="M510.342 314.232C509.358 313.847 508.403 313.392 507.484 312.869C506.563 315.406 506.073 318.08 506.035 320.779L512.77 316.961C513.783 316.387 514.932 315.589 514.91 314.424C514.919 314.28 514.889 314.136 514.824 314.007C514.758 313.879 514.659 313.771 514.537 313.694C514.388 313.633 514.225 313.614 514.065 313.638C513.067 313.721 512.156 314.214 511.214 314.556C510.272 314.898 509.17 315.079 508.306 314.571" fill="#3F3D56"/>
<path d="M545.871 316.499C545.131 316.701 544.409 316.96 543.711 317.275C542.165 318.063 541.114 319.559 539.723 320.596C538.392 321.589 536.79 322.134 535.217 322.664C534.754 323.074 534.967 323.899 535.469 324.259C536.009 324.566 536.628 324.706 537.248 324.659C538.882 324.695 540.604 324.711 542.035 323.921C542.841 323.397 543.596 322.797 544.288 322.129C545.962 320.73 547.971 319.808 549.961 318.916C550.685 318.642 551.354 318.241 551.938 317.732C553.188 316.499 553.276 314.596 551.473 314.176C550.017 313.837 547.257 316.05 545.871 316.499Z" fill="#3F3D56"/>
<path d="M561.568 306.228C561.649 305.379 561.537 304.523 561.239 303.724C560.941 302.926 560.466 302.205 559.849 301.617C559.831 303.315 559.779 305.124 558.826 306.529C558.146 307.529 557.081 308.205 556.337 309.158C555.592 310.111 555.262 311.622 556.135 312.458C556.693 312.884 557.373 313.118 558.074 313.127C559.812 313.332 561.824 313.446 563.043 312.189C563.708 311.502 564.032 310.486 564.843 309.981C565.146 309.854 565.416 309.66 565.633 309.415C565.968 308.881 565.436 308.178 564.837 307.986C564.237 307.794 563.577 307.884 562.975 307.701C562.373 307.519 561.82 306.84 562.129 306.291" fill="#3F3D56"/>
<path d="M533.668 243.966C532.757 244.188 531.812 244.244 530.881 244.131C529.333 243.846 528.129 242.678 526.88 241.72C523.91 239.455 520.3 238.192 516.569 238.112C513.174 238.047 509.748 238.969 506.414 238.326C506.632 239.539 507.669 240.45 508.775 240.99C509.881 241.531 511.102 241.804 512.213 242.334C513.993 243.191 515.405 244.662 516.19 246.477C516.548 247.314 516.773 248.225 517.315 248.956C518.423 250.449 520.524 250.777 522.378 250.655C524.795 250.496 527.32 249.799 529.569 250.702C531.289 251.392 532.52 252.9 533.957 254.072C535.393 255.245 537.416 256.115 539.066 255.269C537.352 254.714 535.861 253.624 534.81 252.16C533.759 250.695 533.202 248.933 533.222 247.129C534.839 247.278 539.499 247.221 539.248 244.467C539.035 242.134 535.057 243.714 533.668 243.966Z" fill="#3F3D56"/>
<path d="M512.504 262.95C512.792 261.372 514.363 259.979 513.873 258.452C513.535 257.396 512.312 256.874 511.205 256.848C510.098 256.822 509.01 257.152 507.903 257.184C507.183 257.145 506.461 257.156 505.741 257.214C503.544 257.576 502.19 259.883 500.119 260.703C498.86 261.202 497.445 261.107 496.135 261.452C493.163 262.234 491.282 265.048 489.204 267.316C485.846 270.965 481.472 273.52 476.648 274.65C474.957 275.042 473.14 275.293 471.797 276.393C470.018 277.849 469.58 280.345 469.184 282.612C468.09 288.872 466.419 295.017 464.191 300.968L471.25 301.871C472.592 302.042 473.983 302.21 475.276 301.812C476.216 301.457 477.106 300.982 477.924 300.399C481.068 298.444 484.586 297.172 488.252 296.665C490.1 296.411 492.038 296.365 493.773 297.053C495.508 297.741 496.996 299.302 497.141 301.165C497.891 300.931 498.691 300.906 499.454 301.092C500.218 301.278 500.916 301.668 501.475 302.221C502.581 303.349 503.305 304.796 503.545 306.358C503.731 307.325 503.917 308.484 504.813 308.89C505.544 309.221 506.382 308.864 507.182 308.8C509.896 308.583 512.148 311.752 514.815 311.207C517.676 310.621 518.379 306.33 521.169 305.47C522.772 304.977 525.021 305.577 525.788 304.084C526.465 302.767 525.115 301.248 525.254 299.774C525.426 297.96 527.563 297.189 529.211 296.415C534.891 293.745 537.587 286.088 534.834 280.44C533.203 277.093 529.994 274.459 529.401 270.783C528.946 267.955 530.059 264.657 528.258 262.431C527.342 261.298 525.792 260.673 525.247 259.322C524.904 258.471 525.042 257.506 524.857 256.607C524.672 255.709 523.89 254.769 523.004 255.002C520.432 255.678 519.612 263.635 518.235 265.568C516.142 268.507 511.845 266.571 512.504 262.95Z" fill="#3F3D56"/>
<path d="M464.972 246.972C464.093 246.726 463.133 246.482 462.291 246.835C461.449 247.188 460.958 248.426 461.633 249.04C466.92 248.834 472.24 248.629 477.482 249.348C483.521 250.177 489.499 252.229 495.565 251.626C492.1 250.602 488.577 249.783 485.016 249.174L479.077 248.038C477.484 247.703 475.875 247.454 474.255 247.291C470.867 247.011 468.303 247.908 464.972 246.972Z" fill="#3F3D56"/>
<path d="M470.263 228.529C469.824 228.493 469.281 228.461 469.053 228.839C468.837 229.2 469.085 229.677 468.968 230.082C468.809 230.635 468.085 230.777 467.515 230.701C466.946 230.626 466.329 230.446 465.824 230.721C465.568 230.896 465.376 231.15 465.276 231.444C465.176 231.738 465.174 232.057 465.27 232.352C465.476 232.938 465.81 233.471 466.247 233.913C466.994 234.855 467.845 235.71 468.784 236.461C470.601 237.804 473.063 238.452 474.207 240.402C474.369 240.78 474.617 241.114 474.932 241.378C475.481 241.727 476.197 241.462 476.789 241.191L478.863 240.242C479.236 240.107 479.569 239.88 479.832 239.582C480.306 238.938 480.015 238.022 479.617 237.329C479.219 236.635 478.71 235.918 478.796 235.122C478.948 233.705 480.768 233.162 481.516 231.949C482.271 230.727 481.78 229.151 481.866 227.716C481.968 226.038 483.021 223.856 481.327 222.602C479.888 221.537 478.512 222.521 477.479 223.697C475.3 226.178 474.269 228.864 470.263 228.529Z" fill="#3F3D56"/>
<path d="M482.852 203.459C483.559 204.816 485.035 205.626 485.807 206.948C486.644 208.382 486.549 210.233 487.456 211.622C488.388 213.047 490.262 213.804 490.784 215.425C491.354 217.195 490.061 219.345 491.092 220.892C491.284 221.144 491.527 221.354 491.804 221.508C492.082 221.662 492.389 221.757 492.704 221.786C493.02 221.815 493.339 221.778 493.64 221.677C493.941 221.577 494.218 221.414 494.453 221.201C494.888 220.727 495.12 220.101 495.101 219.458C495.082 218.814 494.813 218.204 494.351 217.756C493.74 217.198 492.864 216.957 492.354 216.306C492.088 215.93 491.911 215.499 491.836 215.045C491.559 213.734 491.603 212.376 491.966 211.086C492.103 210.759 492.137 210.398 492.066 210.051C491.836 209.383 490.933 209.335 490.299 209.025C488.859 208.321 488.894 206.286 489.145 204.701C488.978 205.756 485.225 203.961 484.832 203.364C484.051 202.176 484.476 199.885 484.321 198.573C482.636 199.387 481.986 201.799 482.852 203.459Z" fill="#3F3D56"/>
<path d="M445.041 224.348C444.348 223.571 443.305 222.758 442.376 223.227C441.667 223.584 441.473 224.566 441.75 225.31C442.089 226.033 442.609 226.655 443.261 227.115C445.197 228.713 447.281 230.156 448.969 232.015C451.99 235.34 453.591 239.828 456.877 242.892C457.538 243.602 458.412 244.076 459.367 244.241C460.324 244.331 461.399 243.717 461.509 242.76C461.6 241.972 461.052 241.267 460.516 240.683C459.239 239.292 457.842 238.012 456.637 236.559C456.08 236.001 455.73 235.269 455.645 234.485C455.639 233.702 456.351 232.884 457.108 233.077C456.188 232.842 455.505 231.306 454.154 231.017C453.025 230.776 452.752 231.476 451.408 230.899C448.846 229.798 446.835 226.36 445.041 224.348Z" fill="#3F3D56"/>
<path d="M505.257 148.721C504.522 148.502 503.799 148.244 503.092 147.946C501.189 147.374 498.672 148.775 498.925 150.749C499.094 152.06 500.312 152.944 500.985 154.081C501.983 155.768 501.717 157.907 501.192 159.796C501.064 160.381 500.819 160.934 500.473 161.422C499.988 161.937 499.409 162.354 498.768 162.65C496.198 164.094 493.932 166.022 492.095 168.328C491.895 168.541 491.756 168.804 491.692 169.089C491.601 169.755 492.27 170.241 492.648 170.797C493.488 172.031 492.881 173.692 492.964 175.184C492.951 175.395 492.992 175.605 493.084 175.796C493.175 175.986 493.313 176.15 493.486 176.272C493.992 176.529 494.592 176.092 494.866 175.594C495.776 173.942 495.09 171.29 496.798 170.494C497.122 170.343 497.513 170.279 497.729 169.995C498.071 169.544 497.741 168.876 497.914 168.337C498.174 167.528 499.279 167.492 500.127 167.528C501.588 167.589 503.049 167.394 504.443 166.952C504.99 166.822 505.486 166.534 505.871 166.124C506.382 165.485 506.337 164.578 506.235 163.767C505.724 159.721 504.444 155.811 502.466 152.248C503.966 152.44 505.598 152.606 506.893 151.823C507.618 151.384 508.487 150.073 508.128 149.18C507.559 147.769 506.532 148.957 505.257 148.721Z" fill="#3F3D56"/>
<path d="M312.915 170.969C313.094 171.934 313.271 172.949 312.955 173.878C312.64 174.807 311.647 175.583 310.709 175.298C309.982 175.077 309.562 174.345 309.045 173.786C306.172 170.68 299.69 172.478 297.915 168.635C297.191 167.066 297.683 165.187 297.189 163.531C296.878 162.574 296.257 161.748 295.426 161.183C294.595 160.617 293.599 160.344 292.596 160.406C291.681 160.539 290.791 160.805 289.953 161.196C284.342 163.447 278.451 164.923 272.442 165.583C271.3 165.653 270.171 165.859 269.078 166.196C266.611 167.092 264.925 169.383 263.725 171.721C262.525 174.059 261.64 176.59 260.031 178.667C258.341 180.85 255.972 182.378 253.763 184.031C252.912 184.581 252.203 185.325 251.695 186.202C251.216 187.187 251.243 188.333 251.28 189.428L251.732 202.727C251.79 204.438 251.863 206.21 252.627 207.74C253.581 209.652 255.467 210.904 256.775 212.593C258.11 214.328 258.806 216.472 258.744 218.662C258.716 219.543 258.629 220.584 259.313 221.137C259.73 221.407 260.217 221.548 260.713 221.54L278.674 223.013C281.834 223.272 285.335 223.697 287.398 226.108C288.372 227.246 289.154 228.883 290.645 229.005C291.285 229.057 291.907 228.794 292.547 228.743C294.161 228.615 295.579 229.842 296.474 231.194C297.828 233.254 298.443 235.714 298.217 238.17C298.07 239.711 297.593 241.21 297.49 242.755C297.099 248.635 302.075 253.744 302.172 259.636C302.228 263.101 300.586 266.339 298.984 269.412C301.569 273.334 299.452 278.556 300.481 283.141C301.458 287.491 305.079 290.896 305.981 295.262C306.394 297.26 306.418 299.72 308.177 300.749C308.95 301.126 309.805 301.298 310.663 301.248C315.835 301.309 320.948 300.143 325.584 297.845C327.76 296.764 330.014 295.15 330.394 292.747C330.701 290.809 329.72 288.642 330.718 286.954C331.895 284.964 334.91 285.122 336.641 283.593C339.45 281.111 337.26 276.379 338.398 272.805C339.421 269.593 342.942 267.886 344.688 265.003C345.375 263.763 345.868 262.425 346.149 261.035C346.949 257.714 347.447 254.327 347.637 250.915C347.683 248.843 347.836 246.774 348.094 244.717C349.976 233.006 361.535 225.164 365.288 213.913C365.646 212.839 365.814 211.408 364.86 210.8C364.294 210.529 363.652 210.462 363.043 210.609L354.763 211.655C353.734 211.785 352.644 211.906 351.7 211.478C350.755 211.051 350.078 209.854 350.579 208.945C351.986 206.394 349.093 203.17 347.808 200.555C344.347 193.515 340.225 186.82 335.499 180.561C335.196 180.239 335.007 179.827 334.959 179.387L337.309 179.466C336.516 176.615 335.207 173.495 332.442 172.452C330.883 171.864 329.158 172.068 327.495 172.159C322.733 172.419 317.628 171.699 312.915 170.969Z" fill="#3F3D56"/>
<path d="M327.498 106.723C328.744 108.049 330.141 109.454 331.944 109.685C335.128 110.093 337.418 106.795 338.875 103.93C338.929 104.66 339.266 105.341 339.813 105.826C340.36 106.312 341.075 106.565 341.805 106.531C342.591 106.399 343.342 106.105 344.009 105.668C350.318 102.215 357.386 100.385 364.576 100.343C364.507 99.7977 364.642 99.2459 364.955 98.7943C365.268 98.3426 365.737 98.0232 366.272 97.8976C367.734 97.6073 369.051 98.8732 369.756 100.188C370.461 101.503 370.901 103.028 372.021 104.012C373.141 104.996 375.311 104.953 375.753 103.528C376.178 102.159 374.755 100.992 373.572 100.186C372.39 99.3789 371.143 97.8856 371.94 96.695C377.981 95.3556 384.06 94.0111 390.241 93.7449C391.294 93.7816 392.343 93.6007 393.322 93.2133C394.265 92.75 395.014 91.6982 394.761 90.6775C393.412 90.9951 391.999 90.9031 390.702 90.4132C389.405 89.9234 388.284 89.0579 387.48 87.927C396.058 87.218 405.181 86.6137 412.783 90.6563C413.695 92.6178 409.046 94.2497 410.29 96.0188C410.687 96.583 411.481 96.6492 412.17 96.662C417.453 96.7602 422.766 96.8565 427.989 96.0577C429.897 95.7658 431.825 95.3537 433.742 95.5904C436.933 95.9847 439.663 98.1178 442.804 98.8132C444.082 99.0963 445.515 99.1059 446.592 98.3613C447.669 97.6168 448.132 95.9214 447.25 94.9535C450.206 92.0512 455.113 92.7705 459.013 94.16C462.914 95.5495 466.609 97.7903 470.737 98.1C473.697 98.3221 476.699 97.5246 479.624 98.0315C481.462 98.3501 483.173 99.1691 484.969 99.6723C488.367 100.624 491.962 100.423 495.49 100.469C504.491 100.59 513.394 102.362 521.758 105.697C522.846 106.052 523.843 106.642 524.678 107.425C525.457 108.26 525.854 109.557 525.33 110.572L516.688 109.307C517.502 110.913 519.609 111.186 521.32 111.74C523.03 112.294 524.804 114.186 523.776 115.664C521.922 115.073 520.243 116.929 519.306 118.637C518.37 120.345 517.229 122.39 515.286 122.494C513.546 122.587 511.443 121.104 510.309 122.429C511.875 124.408 513.217 126.556 514.308 128.833C515.428 131.17 516.226 134.116 514.712 136.219C514.474 136.594 514.113 136.875 513.69 137.013C512.454 137.326 511.65 135.811 510.764 134.893C509.646 133.735 507.956 133.408 506.443 132.865C504.93 132.322 503.335 131.254 503.217 129.649C503.143 128.65 503.67 127.721 504.058 126.798C504.71 125.242 504.995 123.556 504.891 121.872C504.806 120.516 504.427 119.107 503.455 118.16C502.483 117.213 500.806 116.913 499.763 117.78C499.276 118.185 498.886 118.832 498.254 118.856C497.137 118.899 496.28 116.949 495.381 117.614C495.486 118.324 495.34 119.048 494.966 119.659C492.285 121.995 488.166 121.007 484.709 121.832C483.065 122.303 481.492 122.992 480.029 123.879C479.482 124.113 479.017 124.505 478.692 125.004C478.26 125.843 478.736 126.919 479.497 127.477C480.303 127.973 481.21 128.283 482.15 128.385C486.364 129.184 490.64 130.422 493.967 133.133C497.294 135.844 499.476 140.325 498.423 144.49L490.113 136.536C490.428 139.876 490.607 143.224 490.65 146.582C490.704 147.238 490.614 147.897 490.386 148.515C489.794 149.825 488.188 150.266 486.781 150.556C486.39 150.63 486.019 150.787 485.692 151.015C485.365 151.244 485.091 151.539 484.886 151.881C484.681 152.223 484.551 152.605 484.504 153.001C484.457 153.397 484.494 153.799 484.613 154.18C485.113 155.812 486.36 157.084 487.501 158.352C488.642 159.62 489.766 161.061 489.915 162.762C490.064 164.462 488.784 166.379 487.083 166.261C485.794 166.171 484.838 165.016 484.288 163.845C483.738 162.673 483.411 161.369 482.585 160.374C480.085 157.362 474.468 158.652 472.228 155.441C471.657 156.09 471.261 156.874 471.078 157.719C470.895 158.564 470.93 159.442 471.181 160.269C472.223 159.616 473.649 160.223 474.432 161.173C475.215 162.122 475.585 163.339 476.2 164.405C477.029 165.844 478.35 167.12 478.465 168.778C478.435 169.404 478.445 170.032 478.497 170.658C478.703 171.662 479.55 172.383 480.138 173.223C481.505 175.176 481.438 177.86 480.556 180.076C479.675 182.292 478.092 184.144 476.523 185.94C473.784 189.076 470.989 192.194 467.742 194.798C466.815 195.541 465.826 196.272 465.249 197.311C464.672 198.35 464.642 199.808 465.529 200.599C464.895 200.63 463.757 200.943 463.122 200.975C462.899 198.425 462.85 195.863 462.977 193.307C460.473 192.102 457.776 195.328 458.1 198.091C458.423 200.855 460.418 203.072 461.839 205.463C462.878 207.212 463.65 209.25 463.303 211.255C462.957 213.26 461.17 215.109 459.146 214.932C455.927 214.651 454.581 210.023 451.393 209.493C451.112 209.427 450.817 209.456 450.554 209.576C450.081 209.837 449.999 210.471 449.972 211.011C449.842 213.661 449.729 216.416 450.762 218.86C452.273 222.434 456.176 225.436 455.357 229.23C450.946 227.177 448.653 222.222 447.611 217.463C446.57 212.703 446.397 207.707 444.53 203.208C443.113 205.028 440.133 203.523 438.838 201.614C437.611 199.805 436.855 197.711 435.663 195.877C434.472 194.043 432.647 192.4 430.465 192.3C428.177 192.194 426.193 193.766 424.448 195.252C423.013 196.474 421.54 197.744 420.701 199.433C419.48 201.891 419.8 204.788 419.741 207.533C419.677 210.5 419.05 213.63 417.031 215.802C415.012 217.974 411.285 218.731 409.058 216.773C407.896 215.751 407.333 214.224 406.831 212.759C404.415 205.694 402.402 198.496 400.803 191.202C400.429 192.867 398.969 195.013 397.575 194.032C397.262 193.768 397.008 193.441 396.831 193.072C394.23 188.657 389.413 186.008 384.546 184.42C379.68 182.832 374.559 182.092 369.746 180.346C367.049 179.368 364.473 178.083 362.069 176.516C361.456 177.418 361.098 178.469 361.033 179.558C360.968 180.647 361.199 181.734 361.7 182.702C362.768 184.596 365.183 185.691 367.251 185.029C368.32 184.687 369.223 183.944 370.283 183.577C371.343 183.21 372.766 183.391 373.23 184.414C373.674 185.393 373.003 186.578 373.336 187.601C373.843 189.158 376.188 189.278 377.008 190.695C377.618 191.75 377.116 193.15 376.245 194.001C375.374 194.852 374.211 195.319 373.148 195.911C369.697 197.833 367.243 201.114 364.227 203.667C361.212 206.219 356.957 208.083 353.363 206.445C354.22 202.1 349.052 198.91 348.101 194.585C347.788 193.161 347.951 191.649 347.504 190.262C346.857 188.253 345.078 186.872 343.618 185.35C341.848 183.483 340.469 181.281 339.562 178.872C338.655 176.463 338.239 173.896 338.339 171.324C338.418 169.536 338.746 167.719 338.339 165.977C337.933 164.234 336.492 162.548 334.707 162.627C330.631 162.807 325.496 163.111 323.357 159.631C322.594 158.388 322.262 156.569 323.365 155.617C324.144 154.946 325.293 155.009 326.315 155.11L335.5 156.015C337.648 156.226 339.97 156.401 341.814 155.276C343.657 154.151 344.456 151.166 342.749 149.842C341.502 148.875 339.267 148.928 338.905 147.39C338.603 146.11 340.018 144.657 339.253 143.587C338.706 142.82 337.474 143.033 336.727 143.608C335.981 144.183 335.439 145.024 334.603 145.46C333.138 146.224 331.387 145.497 329.81 145.003C328.233 144.508 326.119 144.466 325.354 145.933C324.499 147.574 326.113 149.723 325.264 151.367C324.142 153.54 320.341 152.303 318.765 154.173C316.956 156.318 319.996 159.517 319.386 162.257C318.607 162.643 317.742 162.821 316.874 162.772C316.007 162.723 315.166 162.45 314.436 161.978C313.717 161.489 313.145 160.813 312.779 160.024C312.413 159.234 312.267 158.36 312.358 157.495C312.509 156.262 313.151 155.003 312.721 153.838C312.373 152.896 311.429 152.336 310.551 151.85L301.626 146.91C300.797 148.45 301.845 150.358 303.155 151.515C304.465 152.671 306.106 153.542 306.967 155.064C307.512 156.119 307.634 157.342 307.308 158.483C306.983 159.625 306.235 160.599 305.217 161.207C305.089 161.295 304.944 161.354 304.791 161.381C304.639 161.408 304.482 161.401 304.332 161.361C304.19 161.277 304.065 161.166 303.967 161.033C303.868 160.9 303.797 160.749 303.758 160.588C302.183 156.552 299.819 152.572 296.039 150.463C292.259 148.355 286.827 148.788 284.348 152.34C283.76 153.184 283.364 154.146 282.851 155.038C280.126 159.777 274.285 162.021 268.826 161.874C268.293 161.904 267.761 161.779 267.296 161.514C266.414 160.904 266.454 159.609 266.589 158.544L267.162 154.023C267.277 153.116 267.444 152.112 268.161 151.546C269.172 150.747 270.631 151.251 271.919 151.232C272.894 151.187 273.832 150.842 274.605 150.244C275.378 149.646 275.949 148.825 276.241 147.891C276.501 146.949 276.499 145.952 276.236 145.011C275.973 144.069 275.458 143.216 274.747 142.546C274.157 141.991 273.364 141.293 273.676 140.545C273.8 140.338 273.969 140.161 274.169 140.026C274.369 139.891 274.596 139.801 274.834 139.764C277.147 139.091 279.591 138.915 281.866 138.121C284.14 137.327 286.346 135.703 286.885 133.352C287.05 132.631 287.125 131.758 287.771 131.401C288.095 131.264 288.443 131.192 288.795 131.191C290.028 131.015 291.151 130.384 291.943 129.42C292.734 128.457 293.137 127.232 293.071 125.986C294.161 125.223 295.688 125.785 296.743 126.596C297.797 127.407 298.728 128.479 300.011 128.829C302.403 129.481 304.713 127.36 307.192 127.351C308.234 127.346 309.312 127.716 310.293 127.362C311.287 127.003 311.88 126.012 312.643 125.28C313.406 124.548 314.744 124.101 315.449 124.89L314.849 120.44C316.057 120.746 317.316 120.789 318.542 120.567C319.768 120.345 320.933 119.863 321.957 119.153L314.205 116.529C313.935 116.462 313.686 116.328 313.48 116.141C312.917 115.533 313.477 114.586 313.935 113.895C315.031 112.242 315.215 109.519 313.412 108.696C312.182 108.134 310.769 108.809 309.588 109.468L303.93 112.628C303.75 113.705 305.065 114.316 305.88 115.042C306.373 115.481 306.722 116.059 306.881 116.7C307.04 117.341 307.002 118.016 306.771 118.635C306.541 119.254 306.129 119.789 305.589 120.169C305.049 120.549 304.407 120.757 303.748 120.765C304.12 121.25 304.379 121.813 304.505 122.412C304.631 123.011 304.621 123.63 304.476 124.225L300.669 124.499C300.241 124.585 299.797 124.498 299.434 124.258C299.027 123.895 299.082 123.261 298.988 122.724C298.76 121.427 297.492 120.518 296.199 120.285C294.905 120.052 293.582 120.351 292.301 120.646C291.757 120.842 291.16 120.828 290.625 120.607C290.319 120.408 290.086 120.114 289.963 119.769C289.401 118.405 289.926 116.802 290.828 115.636C291.73 114.47 292.964 113.617 294.073 112.646C296.725 110.316 298.673 107.289 299.698 103.908C301.794 103.028 303.963 101.834 306.059 100.954C309.29 99.3156 312.913 98.6124 316.521 98.9237L323.619 99.0595C325.72 99.0997 327.878 99.1512 329.821 99.9535C331.764 100.756 333.471 102.491 333.605 104.592C333.646 104.83 333.625 105.074 333.546 105.302C333.466 105.529 333.33 105.733 333.15 105.894C332.876 106.044 332.565 106.114 332.253 106.096C330.293 106.165 329.458 106.654 327.498 106.723Z" fill="#3F3D56"/>
<path d="M270.93 129.001C271.208 128.738 271.407 128.404 271.507 128.035C271.607 127.666 271.603 127.276 271.497 126.909C270.822 126.649 270.088 126.582 269.377 126.716C268.667 126.85 268.008 127.181 267.474 127.67C267.054 128.096 266.691 128.576 266.397 129.097C265.464 130.621 264.639 132.441 265.18 134.145C265.224 134.331 265.304 134.506 265.417 134.66C265.529 134.814 265.672 134.944 265.835 135.042C266.077 135.14 266.338 135.181 266.599 135.162C267.626 135.161 268.652 135.098 269.672 134.973C270.298 134.896 271.026 134.719 271.268 134.135C271.586 133.368 270.816 132.5 271.04 131.7C271.188 131.343 271.412 131.022 271.696 130.76C271.837 130.628 271.946 130.465 272.013 130.283C272.08 130.102 272.104 129.908 272.083 129.716C271.992 129.34 271.419 129.128 271.212 129.454" fill="#3F3D56"/>
<path d="M276.258 122.084C275.345 121.874 274.405 121.815 273.473 121.908C273.267 121.902 273.062 121.949 272.879 122.044C272.702 122.175 272.573 122.361 272.514 122.574C272.317 123.207 272.365 123.89 272.649 124.489C272.933 125.087 273.432 125.557 274.045 125.804C274.38 125.881 274.701 126.01 274.995 126.186C275.783 126.798 275.281 128.049 275.43 129.037C275.598 130.145 276.669 131.076 276.473 132.18C276.318 133.05 275.39 133.739 275.54 134.609C275.696 135.521 276.851 135.795 277.772 135.868C278.306 135.962 278.855 135.899 279.354 135.687C279.854 135.344 280.21 134.829 280.352 134.239C280.729 133.115 280.888 131.929 280.819 130.745C280.815 130.207 280.68 129.677 280.426 129.203C280.148 128.827 279.841 128.475 279.506 128.149C277.742 126.093 279.6 123.027 276.258 122.084Z" fill="#3F3D56"/>
<path opacity="0.8" d="M508.276 283.118C508.276 283.118 373.139 205.422 314.961 220.144C314.961 220.144 191.663 233.434 177.374 262.672C177.374 262.672 138.18 139.995 123.891 135.905" stroke="#6C63FF" stroke-width="2" stroke-miterlimit="10"/>
<path opacity="0.8" d="M177.374 262.672C200.033 202.151 404.168 135.088 404.168 135.088C375.18 142.449 314.961 220.144 314.961 220.144C314.961 220.144 187.581 127.318 123.891 135.906C123.891 135.906 404.372 145.107 508.276 283.118" stroke="#6C63FF" stroke-width="2" stroke-miterlimit="10"/>
<path d="M123.889 141.834C127.158 141.834 129.809 139.18 129.809 135.905C129.809 132.63 127.158 129.976 123.889 129.976C120.619 129.976 117.969 132.63 117.969 135.905C117.969 139.18 120.619 141.834 123.889 141.834Z" fill="#588EF7"/>
<path d="M177.373 268.601C180.642 268.601 183.293 265.946 183.293 262.672C183.293 259.397 180.642 256.742 177.373 256.742C174.104 256.742 171.453 259.397 171.453 262.672C171.453 265.946 174.104 268.601 177.373 268.601Z" fill="#588EF7"/>
<path d="M404.166 141.017C407.435 141.017 410.086 138.362 410.086 135.088C410.086 131.813 407.435 129.158 404.166 129.158C400.897 129.158 398.246 131.813 398.246 135.088C398.246 138.362 400.897 141.017 404.166 141.017Z" fill="#588EF7"/>
<path d="M508.275 289.047C511.545 289.047 514.195 286.393 514.195 283.118C514.195 279.843 511.545 277.188 508.275 277.188C505.006 277.188 502.355 279.843 502.355 283.118C502.355 286.393 505.006 289.047 508.275 289.047Z" fill="#588EF7"/>
<path d="M314.959 226.073C318.228 226.073 320.879 223.418 320.879 220.143C320.879 216.869 318.228 214.214 314.959 214.214C311.689 214.214 309.039 216.869 309.039 220.143C309.039 223.418 311.689 226.073 314.959 226.073Z" fill="#588EF7"/>
</svg>
